<mxfile host="Electron" agent="Mozilla/5.0 (Windows NT 10.0; Win64; x64) AppleWebKit/537.36 (KHTML, like Gecko) draw.io/26.0.4 Chrome/128.0.6613.186 Electron/32.2.5 Safari/537.36" version="26.0.4">
  <diagram name="Page-1" id="13e1069c-82ec-6db2-03f1-153e76fe0fe0">
    <mxGraphModel dx="2449" dy="1663" grid="0" gridSize="10" guides="1" tooltips="1" connect="1" arrows="1" fold="1" page="0" pageScale="1" pageWidth="1100" pageHeight="850" background="none" math="0" shadow="0">
      <root>
        <mxCell id="0" />
        <mxCell id="1" parent="0" />
        <mxCell id="uIVDQIjMA6gFd7Pro6CU-50" value="viewAssignedComplaints()" style="html=1;verticalAlign=bottom;endArrow=block;entryX=0;entryY=0;labelBackgroundColor=none;fontFamily=Verdana;fontSize=20;edgeStyle=elbowEdgeStyle;elbow=vertical;strokeWidth=2;fontStyle=1" parent="1" edge="1">
          <mxGeometry relative="1" as="geometry">
            <mxPoint x="71" y="1310" as="sourcePoint" />
            <mxPoint x="410" y="1310.0000000000005" as="targetPoint" />
          </mxGeometry>
        </mxCell>
        <mxCell id="7baba1c4bc27f4b0-2" value=":frontend" style="shape=umlLifeline;perimeter=lifelinePerimeter;whiteSpace=wrap;html=1;container=1;collapsible=0;recursiveResize=0;outlineConnect=0;rounded=1;shadow=0;comic=0;labelBackgroundColor=none;strokeWidth=2;fontFamily=Verdana;fontSize=20;align=center;fontStyle=1" parent="1" vertex="1">
          <mxGeometry x="240" y="80" width="111" height="263" as="geometry" />
        </mxCell>
        <mxCell id="7baba1c4bc27f4b0-10" value="" style="html=1;points=[];perimeter=orthogonalPerimeter;rounded=0;shadow=0;comic=0;labelBackgroundColor=none;strokeWidth=2;fontFamily=Verdana;fontSize=20;align=center;fontStyle=1;whiteSpace=wrap;" parent="7baba1c4bc27f4b0-2" vertex="1">
          <mxGeometry x="50" y="100" width="10" height="146" as="geometry" />
        </mxCell>
        <mxCell id="7baba1c4bc27f4b0-35" value="validateInput()" style="html=1;verticalAlign=bottom;endArrow=block;labelBackgroundColor=none;fontFamily=Verdana;fontSize=20;elbow=vertical;edgeStyle=orthogonalEdgeStyle;curved=1;exitX=1;exitY=0.14;exitPerimeter=0;strokeWidth=2;fontStyle=1;exitDx=0;exitDy=0;entryX=1.099;entryY=0.303;entryDx=0;entryDy=0;entryPerimeter=0;" parent="7baba1c4bc27f4b0-2" edge="1">
          <mxGeometry x="-0.2231" y="28" relative="1" as="geometry">
            <mxPoint x="547" y="138.19999999999993" as="sourcePoint" />
            <mxPoint x="547.99" y="175.68999999999994" as="targetPoint" />
            <Array as="points">
              <mxPoint x="607" y="138" />
              <mxPoint x="607" y="176" />
            </Array>
            <mxPoint as="offset" />
          </mxGeometry>
        </mxCell>
        <mxCell id="7baba1c4bc27f4b0-3" value=":backend" style="shape=umlLifeline;perimeter=lifelinePerimeter;whiteSpace=wrap;html=1;container=1;collapsible=0;recursiveResize=0;outlineConnect=0;rounded=1;shadow=0;comic=0;labelBackgroundColor=none;strokeWidth=2;fontFamily=Verdana;fontSize=20;align=center;fontStyle=1" parent="1" vertex="1">
          <mxGeometry x="520" y="80" width="112" height="329" as="geometry" />
        </mxCell>
        <mxCell id="7baba1c4bc27f4b0-13" value="" style="html=1;points=[];perimeter=orthogonalPerimeter;rounded=0;shadow=0;comic=0;labelBackgroundColor=none;strokeWidth=2;fontFamily=Verdana;fontSize=20;align=center;fontStyle=1;whiteSpace=wrap;" parent="7baba1c4bc27f4b0-3" vertex="1">
          <mxGeometry x="50" y="210" width="10" height="110" as="geometry" />
        </mxCell>
        <mxCell id="7baba1c4bc27f4b0-4" value=":Clerk" style="shape=umlLifeline;perimeter=lifelinePerimeter;whiteSpace=wrap;html=1;container=1;collapsible=0;recursiveResize=0;outlineConnect=0;rounded=1;shadow=0;comic=0;labelBackgroundColor=none;strokeWidth=2;fontFamily=Verdana;fontSize=20;align=center;fontStyle=1" parent="1" vertex="1">
          <mxGeometry x="730" y="80" width="100" height="223" as="geometry" />
        </mxCell>
        <mxCell id="7baba1c4bc27f4b0-5" value=":Database" style="shape=umlLifeline;perimeter=lifelinePerimeter;whiteSpace=wrap;html=1;container=1;collapsible=0;recursiveResize=0;outlineConnect=0;rounded=1;shadow=0;comic=0;labelBackgroundColor=none;strokeWidth=2;fontFamily=Verdana;fontSize=20;align=center;fontStyle=1" parent="1" vertex="1">
          <mxGeometry x="960" y="80" width="125" height="298" as="geometry" />
        </mxCell>
        <mxCell id="7baba1c4bc27f4b0-8" value=":user" style="shape=umlLifeline;perimeter=lifelinePerimeter;whiteSpace=wrap;html=1;container=1;collapsible=0;recursiveResize=0;outlineConnect=0;rounded=1;shadow=0;comic=0;labelBackgroundColor=none;strokeWidth=2;fontFamily=Verdana;fontSize=20;align=center;fontStyle=1" parent="1" vertex="1">
          <mxGeometry x="-52" y="80" width="113" height="340" as="geometry" />
        </mxCell>
        <mxCell id="7baba1c4bc27f4b0-9" value="" style="html=1;points=[];perimeter=orthogonalPerimeter;rounded=0;shadow=0;comic=0;labelBackgroundColor=none;strokeWidth=2;fontFamily=Verdana;fontSize=20;align=center;fontStyle=1;whiteSpace=wrap;" parent="7baba1c4bc27f4b0-8" vertex="1">
          <mxGeometry x="52" y="100" width="10" height="228" as="geometry" />
        </mxCell>
        <mxCell id="7baba1c4bc27f4b0-11" value="inputCredentials()" style="html=1;verticalAlign=bottom;endArrow=block;entryX=0;entryY=0;labelBackgroundColor=none;fontFamily=Verdana;fontSize=20;edgeStyle=elbowEdgeStyle;elbow=vertical;strokeWidth=2;fontStyle=1" parent="1" edge="1">
          <mxGeometry relative="1" as="geometry">
            <mxPoint x="10" y="185.20000000000005" as="sourcePoint" />
            <mxPoint x="290" y="185.00000000000023" as="targetPoint" />
          </mxGeometry>
        </mxCell>
        <mxCell id="7baba1c4bc27f4b0-14" value="post credentials" style="html=1;verticalAlign=bottom;endArrow=block;labelBackgroundColor=none;fontFamily=Verdana;fontSize=20;edgeStyle=elbowEdgeStyle;elbow=vertical;strokeWidth=2;fontStyle=1;" parent="1" target="uIVDQIjMA6gFd7Pro6CU-3" edge="1">
          <mxGeometry x="0.0004" relative="1" as="geometry">
            <mxPoint x="354" y="206" as="sourcePoint" />
            <mxPoint x="710.1099999999999" y="229.06000000000006" as="targetPoint" />
            <Array as="points">
              <mxPoint x="296" y="206" />
            </Array>
            <mxPoint as="offset" />
          </mxGeometry>
        </mxCell>
        <mxCell id="uIVDQIjMA6gFd7Pro6CU-3" value="" style="html=1;points=[];perimeter=orthogonalPerimeter;rounded=0;shadow=0;comic=0;labelBackgroundColor=none;strokeWidth=2;fontFamily=Verdana;fontSize=20;align=center;fontStyle=1;whiteSpace=wrap;" parent="1" vertex="1">
          <mxGeometry x="775" y="175" width="10" height="117" as="geometry" />
        </mxCell>
        <mxCell id="uIVDQIjMA6gFd7Pro6CU-4" value="access token" style="html=1;verticalAlign=bottom;endArrow=open;dashed=1;endSize=8;labelBackgroundColor=none;fontFamily=Verdana;fontSize=20;edgeStyle=elbowEdgeStyle;elbow=vertical;strokeWidth=2;fontStyle=1;entryX=1;entryY=0.252;entryDx=0;entryDy=0;entryPerimeter=0;" parent="1" edge="1">
          <mxGeometry relative="1" as="geometry">
            <mxPoint x="300" y="267.96000000000004" as="targetPoint" />
            <Array as="points">
              <mxPoint x="433" y="267" />
            </Array>
            <mxPoint x="774" y="267" as="sourcePoint" />
          </mxGeometry>
        </mxCell>
        <mxCell id="uIVDQIjMA6gFd7Pro6CU-5" value="postData()" style="html=1;verticalAlign=bottom;endArrow=block;labelBackgroundColor=none;fontFamily=Verdana;fontSize=20;edgeStyle=elbowEdgeStyle;elbow=vertical;strokeWidth=2;fontStyle=1;entryX=-0.186;entryY=0.147;entryDx=0;entryDy=0;entryPerimeter=0;exitX=0.955;exitY=0.858;exitDx=0;exitDy=0;exitPerimeter=0;" parent="1" source="7baba1c4bc27f4b0-10" target="7baba1c4bc27f4b0-13" edge="1">
          <mxGeometry x="0.0004" relative="1" as="geometry">
            <mxPoint x="354" y="306" as="sourcePoint" />
            <mxPoint x="490" y="306" as="targetPoint" />
            <Array as="points">
              <mxPoint x="296" y="306" />
            </Array>
            <mxPoint as="offset" />
          </mxGeometry>
        </mxCell>
        <mxCell id="7baba1c4bc27f4b0-28" value="" style="html=1;points=[];perimeter=orthogonalPerimeter;rounded=0;shadow=0;comic=0;labelBackgroundColor=none;strokeWidth=2;fontFamily=Verdana;fontSize=20;align=center;fontStyle=1;whiteSpace=wrap;" parent="1" vertex="1">
          <mxGeometry x="1019" y="311" width="10" height="60" as="geometry" />
        </mxCell>
        <mxCell id="uIVDQIjMA6gFd7Pro6CU-6" value="saveData()" style="html=1;verticalAlign=bottom;endArrow=block;labelBackgroundColor=none;fontFamily=Verdana;fontSize=20;edgeStyle=elbowEdgeStyle;elbow=vertical;strokeWidth=2;fontStyle=1;entryX=-0.204;entryY=0.186;entryDx=0;entryDy=0;entryPerimeter=0;" parent="1" source="7baba1c4bc27f4b0-13" target="7baba1c4bc27f4b0-28" edge="1">
          <mxGeometry x="0.3149" y="4" relative="1" as="geometry">
            <mxPoint x="570" y="336" as="sourcePoint" />
            <mxPoint x="764.8200000000002" y="335.32500000000005" as="targetPoint" />
            <Array as="points">
              <mxPoint x="1018" y="323" />
            </Array>
            <mxPoint x="1" as="offset" />
          </mxGeometry>
        </mxCell>
        <mxCell id="uIVDQIjMA6gFd7Pro6CU-7" value="OK" style="html=1;verticalAlign=bottom;endArrow=open;dashed=1;endSize=8;labelBackgroundColor=none;fontFamily=Verdana;fontSize=20;edgeStyle=elbowEdgeStyle;elbow=vertical;strokeWidth=2;fontStyle=1;" parent="1" edge="1">
          <mxGeometry relative="1" as="geometry">
            <mxPoint x="580" y="357" as="targetPoint" />
            <Array as="points">
              <mxPoint x="678" y="357" />
            </Array>
            <mxPoint x="1019" y="357" as="sourcePoint" />
          </mxGeometry>
        </mxCell>
        <mxCell id="uIVDQIjMA6gFd7Pro6CU-8" value="OK" style="html=1;verticalAlign=bottom;endArrow=open;dashed=1;endSize=8;labelBackgroundColor=none;fontFamily=Verdana;fontSize=20;edgeStyle=elbowEdgeStyle;elbow=vertical;strokeWidth=2;fontStyle=1;entryX=0.888;entryY=0.866;entryDx=0;entryDy=0;entryPerimeter=0;" parent="1" edge="1">
          <mxGeometry relative="1" as="geometry">
            <mxPoint x="8.88000000000011" y="387.44799999999987" as="targetPoint" />
            <Array as="points">
              <mxPoint x="228" y="387" />
            </Array>
            <mxPoint x="569" y="387" as="sourcePoint" />
          </mxGeometry>
        </mxCell>
        <mxCell id="uIVDQIjMA6gFd7Pro6CU-9" value="" style="shape=cross;whiteSpace=wrap;html=1;fillColor=#000000;rotation=45;strokeWidth=2;fontSize=20;" parent="1" vertex="1">
          <mxGeometry x="286" y="330" width="19" height="19" as="geometry" />
        </mxCell>
        <mxCell id="uIVDQIjMA6gFd7Pro6CU-11" value="" style="shape=cross;whiteSpace=wrap;html=1;fillColor=#000000;rotation=45;strokeWidth=2;fontSize=20;" parent="1" vertex="1">
          <mxGeometry x="566.5" y="409" width="19" height="19" as="geometry" />
        </mxCell>
        <mxCell id="uIVDQIjMA6gFd7Pro6CU-12" value="" style="shape=cross;whiteSpace=wrap;html=1;fillColor=#000000;rotation=45;strokeWidth=2;fontSize=20;" parent="1" vertex="1">
          <mxGeometry x="-6" y="411" width="19" height="19" as="geometry" />
        </mxCell>
        <mxCell id="uIVDQIjMA6gFd7Pro6CU-13" value="" style="shape=cross;whiteSpace=wrap;html=1;fillColor=#000000;rotation=45;strokeWidth=2;fontSize=20;" parent="1" vertex="1">
          <mxGeometry x="769.9350288425444" y="293.9350288425444" width="19" height="19" as="geometry" />
        </mxCell>
        <mxCell id="uIVDQIjMA6gFd7Pro6CU-14" value="" style="shape=cross;whiteSpace=wrap;html=1;fillColor=#000000;rotation=45;strokeWidth=2;fontSize=20;" parent="1" vertex="1">
          <mxGeometry x="1012.9350288425444" y="373.9350288425444" width="19" height="19" as="geometry" />
        </mxCell>
        <mxCell id="uIVDQIjMA6gFd7Pro6CU-15" value=":frontend" style="shape=umlLifeline;perimeter=lifelinePerimeter;whiteSpace=wrap;html=1;container=1;collapsible=0;recursiveResize=0;outlineConnect=0;rounded=1;shadow=0;comic=0;labelBackgroundColor=none;strokeWidth=2;fontFamily=Verdana;fontSize=20;align=center;fontStyle=1" parent="1" vertex="1">
          <mxGeometry x="350" y="630" width="111" height="326" as="geometry" />
        </mxCell>
        <mxCell id="uIVDQIjMA6gFd7Pro6CU-16" value="" style="html=1;points=[];perimeter=orthogonalPerimeter;rounded=0;shadow=0;comic=0;labelBackgroundColor=none;strokeWidth=2;fontFamily=Verdana;fontSize=20;align=center;fontStyle=1;whiteSpace=wrap;" parent="uIVDQIjMA6gFd7Pro6CU-15" vertex="1">
          <mxGeometry x="50" y="100" width="10" height="215" as="geometry" />
        </mxCell>
        <mxCell id="uIVDQIjMA6gFd7Pro6CU-18" value=":backend" style="shape=umlLifeline;perimeter=lifelinePerimeter;whiteSpace=wrap;html=1;container=1;collapsible=0;recursiveResize=0;outlineConnect=0;rounded=1;shadow=0;comic=0;labelBackgroundColor=none;strokeWidth=2;fontFamily=Verdana;fontSize=20;align=center;fontStyle=1" parent="1" vertex="1">
          <mxGeometry x="630" y="630" width="112" height="286" as="geometry" />
        </mxCell>
        <mxCell id="uIVDQIjMA6gFd7Pro6CU-19" value="" style="html=1;points=[];perimeter=orthogonalPerimeter;rounded=0;shadow=0;comic=0;labelBackgroundColor=none;strokeWidth=2;fontFamily=Verdana;fontSize=20;align=center;fontStyle=1;whiteSpace=wrap;" parent="uIVDQIjMA6gFd7Pro6CU-18" vertex="1">
          <mxGeometry x="50" y="227" width="10" height="49" as="geometry" />
        </mxCell>
        <mxCell id="uIVDQIjMA6gFd7Pro6CU-21" value=":Database" style="shape=umlLifeline;perimeter=lifelinePerimeter;whiteSpace=wrap;html=1;container=1;collapsible=0;recursiveResize=0;outlineConnect=0;rounded=1;shadow=0;comic=0;labelBackgroundColor=none;strokeWidth=2;fontFamily=Verdana;fontSize=20;align=center;fontStyle=1" parent="1" vertex="1">
          <mxGeometry x="870" y="630" width="125" height="298" as="geometry" />
        </mxCell>
        <mxCell id="uIVDQIjMA6gFd7Pro6CU-22" value=":constituent" style="shape=umlLifeline;perimeter=lifelinePerimeter;whiteSpace=wrap;html=1;container=1;collapsible=0;recursiveResize=0;outlineConnect=0;rounded=1;shadow=0;comic=0;labelBackgroundColor=none;strokeWidth=2;fontFamily=Verdana;fontSize=20;align=center;fontStyle=1" parent="1" vertex="1">
          <mxGeometry x="27" y="630" width="144" height="340" as="geometry" />
        </mxCell>
        <mxCell id="uIVDQIjMA6gFd7Pro6CU-23" value="" style="html=1;points=[];perimeter=orthogonalPerimeter;rounded=0;shadow=0;comic=0;labelBackgroundColor=none;strokeWidth=2;fontFamily=Verdana;fontSize=20;align=center;fontStyle=1;whiteSpace=wrap;" parent="uIVDQIjMA6gFd7Pro6CU-22" vertex="1">
          <mxGeometry x="67" y="100" width="10" height="228" as="geometry" />
        </mxCell>
        <mxCell id="uIVDQIjMA6gFd7Pro6CU-24" value="login()" style="html=1;verticalAlign=bottom;endArrow=block;entryX=0;entryY=0;labelBackgroundColor=none;fontFamily=Verdana;fontSize=20;edgeStyle=elbowEdgeStyle;elbow=vertical;strokeWidth=2;fontStyle=1" parent="1" source="uIVDQIjMA6gFd7Pro6CU-23" target="uIVDQIjMA6gFd7Pro6CU-16" edge="1">
          <mxGeometry relative="1" as="geometry">
            <mxPoint x="330" y="740" as="sourcePoint" />
          </mxGeometry>
        </mxCell>
        <mxCell id="uIVDQIjMA6gFd7Pro6CU-28" value="postComplaint()" style="html=1;verticalAlign=bottom;endArrow=block;labelBackgroundColor=none;fontFamily=Verdana;fontSize=20;edgeStyle=elbowEdgeStyle;elbow=vertical;strokeWidth=2;fontStyle=1;entryX=-0.186;entryY=0.147;entryDx=0;entryDy=0;entryPerimeter=0;exitX=1.012;exitY=0.758;exitDx=0;exitDy=0;exitPerimeter=0;" parent="1" edge="1">
          <mxGeometry x="0.0004" relative="1" as="geometry">
            <mxPoint x="410.1200000000001" y="875.0699999999999" as="sourcePoint" />
            <mxPoint x="678.1399999999999" y="876.1700000000001" as="targetPoint" />
            <Array as="points">
              <mxPoint x="406" y="876" />
            </Array>
            <mxPoint as="offset" />
          </mxGeometry>
        </mxCell>
        <mxCell id="uIVDQIjMA6gFd7Pro6CU-29" value="" style="html=1;points=[];perimeter=orthogonalPerimeter;rounded=0;shadow=0;comic=0;labelBackgroundColor=none;strokeWidth=2;fontFamily=Verdana;fontSize=20;align=center;fontStyle=1;whiteSpace=wrap;" parent="1" vertex="1">
          <mxGeometry x="929" y="881" width="10" height="60" as="geometry" />
        </mxCell>
        <mxCell id="uIVDQIjMA6gFd7Pro6CU-30" value="saveComplaint()" style="html=1;verticalAlign=bottom;endArrow=block;labelBackgroundColor=none;fontFamily=Verdana;fontSize=20;edgeStyle=elbowEdgeStyle;elbow=vertical;strokeWidth=2;fontStyle=1;entryX=-0.05;entryY=0.208;entryDx=0;entryDy=0;entryPerimeter=0;" parent="1" target="uIVDQIjMA6gFd7Pro6CU-29" edge="1">
          <mxGeometry x="0.0629" y="4" relative="1" as="geometry">
            <mxPoint x="690" y="893" as="sourcePoint" />
            <mxPoint x="893" y="896" as="targetPoint" />
            <Array as="points">
              <mxPoint x="1128" y="893" />
            </Array>
            <mxPoint as="offset" />
          </mxGeometry>
        </mxCell>
        <mxCell id="uIVDQIjMA6gFd7Pro6CU-31" value="OK" style="html=1;verticalAlign=bottom;endArrow=open;dashed=1;endSize=8;labelBackgroundColor=none;fontFamily=Verdana;fontSize=20;edgeStyle=elbowEdgeStyle;elbow=vertical;strokeWidth=2;fontStyle=1;" parent="1" edge="1">
          <mxGeometry x="0.1291" relative="1" as="geometry">
            <mxPoint x="410" y="932" as="targetPoint" />
            <Array as="points">
              <mxPoint x="588" y="932" />
            </Array>
            <mxPoint x="929" y="932" as="sourcePoint" />
            <mxPoint as="offset" />
          </mxGeometry>
        </mxCell>
        <mxCell id="uIVDQIjMA6gFd7Pro6CU-32" value="Display success message" style="html=1;verticalAlign=bottom;endArrow=open;dashed=1;endSize=8;labelBackgroundColor=none;fontFamily=Verdana;fontSize=20;edgeStyle=elbowEdgeStyle;elbow=vertical;strokeWidth=2;fontStyle=1;" parent="1" target="uIVDQIjMA6gFd7Pro6CU-23" edge="1">
          <mxGeometry x="0.0013" relative="1" as="geometry">
            <mxPoint x="133" y="942" as="targetPoint" />
            <Array as="points">
              <mxPoint x="368" y="942" />
            </Array>
            <mxPoint x="399" y="942" as="sourcePoint" />
            <mxPoint as="offset" />
          </mxGeometry>
        </mxCell>
        <mxCell id="uIVDQIjMA6gFd7Pro6CU-33" value="" style="shape=cross;whiteSpace=wrap;html=1;fillColor=#000000;rotation=45;strokeWidth=2;fontSize=20;" parent="1" vertex="1">
          <mxGeometry x="396" y="948" width="19" height="19" as="geometry" />
        </mxCell>
        <mxCell id="uIVDQIjMA6gFd7Pro6CU-34" value="" style="shape=cross;whiteSpace=wrap;html=1;fillColor=#000000;rotation=45;strokeWidth=2;fontSize=20;" parent="1" vertex="1">
          <mxGeometry x="676.5" y="909" width="19" height="19" as="geometry" />
        </mxCell>
        <mxCell id="uIVDQIjMA6gFd7Pro6CU-35" value="" style="shape=cross;whiteSpace=wrap;html=1;fillColor=#000000;rotation=45;strokeWidth=2;fontSize=20;" parent="1" vertex="1">
          <mxGeometry x="90" y="967" width="19" height="19" as="geometry" />
        </mxCell>
        <mxCell id="uIVDQIjMA6gFd7Pro6CU-37" value="" style="shape=cross;whiteSpace=wrap;html=1;fillColor=#000000;rotation=45;strokeWidth=2;fontSize=20;" parent="1" vertex="1">
          <mxGeometry x="922.9350288425444" y="943.9350288425444" width="19" height="19" as="geometry" />
        </mxCell>
        <mxCell id="uIVDQIjMA6gFd7Pro6CU-38" value="&lt;font&gt;&lt;b&gt;Login/Signup&lt;/b&gt;&lt;/font&gt;" style="whiteSpace=wrap;html=1;strokeWidth=2;fontSize=20;" parent="1" vertex="1">
          <mxGeometry x="434" y="-68" width="181" height="60" as="geometry" />
        </mxCell>
        <mxCell id="uIVDQIjMA6gFd7Pro6CU-39" value="displayDashboard()" style="html=1;verticalAlign=bottom;endArrow=open;dashed=1;endSize=8;labelBackgroundColor=none;fontFamily=Verdana;fontSize=20;edgeStyle=elbowEdgeStyle;elbow=vertical;strokeWidth=2;fontStyle=1;entryX=1;entryY=0.252;entryDx=0;entryDy=0;entryPerimeter=0;exitX=0.12;exitY=0.173;exitDx=0;exitDy=0;exitPerimeter=0;" parent="1" source="uIVDQIjMA6gFd7Pro6CU-16" edge="1">
          <mxGeometry relative="1" as="geometry">
            <mxPoint x="104" y="758.96" as="targetPoint" />
            <Array as="points">
              <mxPoint x="237" y="758" />
            </Array>
            <mxPoint x="578" y="758" as="sourcePoint" />
          </mxGeometry>
        </mxCell>
        <mxCell id="uIVDQIjMA6gFd7Pro6CU-40" value="enterDetail ()" style="html=1;verticalAlign=bottom;endArrow=block;entryX=0;entryY=0;labelBackgroundColor=none;fontFamily=Verdana;fontSize=20;edgeStyle=elbowEdgeStyle;elbow=vertical;strokeWidth=2;fontStyle=1" parent="1" edge="1">
          <mxGeometry relative="1" as="geometry">
            <mxPoint x="104" y="790" as="sourcePoint" />
            <mxPoint x="400" y="790" as="targetPoint" />
          </mxGeometry>
        </mxCell>
        <mxCell id="uIVDQIjMA6gFd7Pro6CU-41" value="validateComplaint()" style="html=1;verticalAlign=bottom;endArrow=block;labelBackgroundColor=none;fontFamily=Verdana;fontSize=20;elbow=vertical;edgeStyle=orthogonalEdgeStyle;curved=1;exitX=1;exitY=0.14;exitPerimeter=0;strokeWidth=2;fontStyle=1;exitDx=0;exitDy=0;entryX=1.099;entryY=0.303;entryDx=0;entryDy=0;entryPerimeter=0;" parent="1" edge="1">
          <mxGeometry x="-0.1948" y="54" relative="1" as="geometry">
            <mxPoint x="410" y="813" as="sourcePoint" />
            <mxPoint x="410.99" y="850.49" as="targetPoint" />
            <Array as="points">
              <mxPoint x="470" y="812.8000000000001" />
              <mxPoint x="470" y="850.8000000000001" />
            </Array>
            <mxPoint as="offset" />
          </mxGeometry>
        </mxCell>
        <mxCell id="uIVDQIjMA6gFd7Pro6CU-42" value="&lt;font&gt;&lt;b&gt;Post Complaint&lt;/b&gt;&lt;/font&gt;" style="whiteSpace=wrap;html=1;strokeWidth=2;fontSize=20;" parent="1" vertex="1">
          <mxGeometry x="406" y="539" width="283" height="60" as="geometry" />
        </mxCell>
        <mxCell id="uIVDQIjMA6gFd7Pro6CU-43" value=":frontend" style="shape=umlLifeline;perimeter=lifelinePerimeter;whiteSpace=wrap;html=1;container=1;collapsible=0;recursiveResize=0;outlineConnect=0;rounded=1;shadow=0;comic=0;labelBackgroundColor=none;strokeWidth=2;fontFamily=Verdana;fontSize=20;align=center;fontStyle=1" parent="1" vertex="1">
          <mxGeometry x="360" y="1180" width="111" height="326" as="geometry" />
        </mxCell>
        <mxCell id="uIVDQIjMA6gFd7Pro6CU-44" value="" style="html=1;points=[];perimeter=orthogonalPerimeter;rounded=0;shadow=0;comic=0;labelBackgroundColor=none;strokeWidth=2;fontFamily=Verdana;fontSize=20;align=center;fontStyle=1;whiteSpace=wrap;" parent="uIVDQIjMA6gFd7Pro6CU-43" vertex="1">
          <mxGeometry x="50" y="100" width="10" height="215" as="geometry" />
        </mxCell>
        <mxCell id="uIVDQIjMA6gFd7Pro6CU-45" value=":backend" style="shape=umlLifeline;perimeter=lifelinePerimeter;whiteSpace=wrap;html=1;container=1;collapsible=0;recursiveResize=0;outlineConnect=0;rounded=1;shadow=0;comic=0;labelBackgroundColor=none;strokeWidth=2;fontFamily=Verdana;fontSize=20;align=center;fontStyle=1" parent="1" vertex="1">
          <mxGeometry x="656" y="1179" width="112" height="444" as="geometry" />
        </mxCell>
        <mxCell id="uIVDQIjMA6gFd7Pro6CU-46" value="" style="html=1;points=[];perimeter=orthogonalPerimeter;rounded=0;shadow=0;comic=0;labelBackgroundColor=none;strokeWidth=2;fontFamily=Verdana;fontSize=20;align=center;fontStyle=1;whiteSpace=wrap;" parent="uIVDQIjMA6gFd7Pro6CU-45" vertex="1">
          <mxGeometry x="50" y="267" width="10" height="160" as="geometry" />
        </mxCell>
        <mxCell id="uIVDQIjMA6gFd7Pro6CU-51" value="requestDbUpdate()" style="html=1;verticalAlign=bottom;endArrow=block;labelBackgroundColor=none;fontFamily=Verdana;fontSize=20;edgeStyle=elbowEdgeStyle;elbow=vertical;strokeWidth=2;fontStyle=1;exitX=0.961;exitY=0.818;exitDx=0;exitDy=0;exitPerimeter=0;" parent="uIVDQIjMA6gFd7Pro6CU-45" source="uIVDQIjMA6gFd7Pro6CU-44" edge="1">
          <mxGeometry x="0.0004" relative="1" as="geometry">
            <mxPoint x="-260.9999999999999" y="275.06999999999994" as="sourcePoint" />
            <mxPoint x="50" y="276" as="targetPoint" />
            <Array as="points" />
            <mxPoint as="offset" />
          </mxGeometry>
        </mxCell>
        <mxCell id="uIVDQIjMA6gFd7Pro6CU-73" value="notifyConstituent()" style="html=1;verticalAlign=bottom;endArrow=block;labelBackgroundColor=none;fontFamily=Verdana;fontSize=20;elbow=vertical;edgeStyle=orthogonalEdgeStyle;curved=1;exitX=1;exitY=0.14;exitPerimeter=0;strokeWidth=2;fontStyle=1;exitDx=0;exitDy=0;entryX=1.099;entryY=0.303;entryDx=0;entryDy=0;entryPerimeter=0;" parent="uIVDQIjMA6gFd7Pro6CU-45" edge="1">
          <mxGeometry x="-0.2333" y="51" relative="1" as="geometry">
            <mxPoint x="60" y="367" as="sourcePoint" />
            <mxPoint x="60.99000000000001" y="404.49" as="targetPoint" />
            <Array as="points">
              <mxPoint x="120" y="366.8000000000002" />
              <mxPoint x="120" y="404.8000000000002" />
            </Array>
            <mxPoint as="offset" />
          </mxGeometry>
        </mxCell>
        <mxCell id="uIVDQIjMA6gFd7Pro6CU-47" value=":Database" style="shape=umlLifeline;perimeter=lifelinePerimeter;whiteSpace=wrap;html=1;container=1;collapsible=0;recursiveResize=0;outlineConnect=0;rounded=1;shadow=0;comic=0;labelBackgroundColor=none;strokeWidth=2;fontFamily=Verdana;fontSize=20;align=center;fontStyle=1" parent="1" vertex="1">
          <mxGeometry x="880" y="1180" width="125" height="333" as="geometry" />
        </mxCell>
        <mxCell id="uIVDQIjMA6gFd7Pro6CU-48" value=":resolver" style="shape=umlLifeline;perimeter=lifelinePerimeter;whiteSpace=wrap;html=1;container=1;collapsible=0;recursiveResize=0;outlineConnect=0;rounded=1;shadow=0;comic=0;labelBackgroundColor=none;strokeWidth=2;fontFamily=Verdana;fontSize=20;align=center;fontStyle=1" parent="1" vertex="1">
          <mxGeometry y="1180" width="141" height="473" as="geometry" />
        </mxCell>
        <mxCell id="uIVDQIjMA6gFd7Pro6CU-49" value="" style="html=1;points=[];perimeter=orthogonalPerimeter;rounded=0;shadow=0;comic=0;labelBackgroundColor=none;strokeWidth=2;fontFamily=Verdana;fontSize=20;align=center;fontStyle=1;whiteSpace=wrap;" parent="uIVDQIjMA6gFd7Pro6CU-48" vertex="1">
          <mxGeometry x="66" y="100" width="10" height="356" as="geometry" />
        </mxCell>
        <mxCell id="uIVDQIjMA6gFd7Pro6CU-52" value="" style="html=1;points=[];perimeter=orthogonalPerimeter;rounded=0;shadow=0;comic=0;labelBackgroundColor=none;strokeWidth=2;fontFamily=Verdana;fontSize=20;align=center;fontStyle=1;whiteSpace=wrap;" parent="1" vertex="1">
          <mxGeometry x="939" y="1461" width="10" height="39" as="geometry" />
        </mxCell>
        <mxCell id="uIVDQIjMA6gFd7Pro6CU-53" value="saveComplaint()" style="html=1;verticalAlign=bottom;endArrow=block;labelBackgroundColor=none;fontFamily=Verdana;fontSize=20;edgeStyle=elbowEdgeStyle;elbow=vertical;strokeWidth=2;fontStyle=1;" parent="1" source="uIVDQIjMA6gFd7Pro6CU-46" edge="1">
          <mxGeometry x="0.0629" y="4" relative="1" as="geometry">
            <mxPoint x="700" y="1443" as="sourcePoint" />
            <mxPoint x="939" y="1472" as="targetPoint" />
            <Array as="points">
              <mxPoint x="878" y="1472" />
            </Array>
            <mxPoint as="offset" />
          </mxGeometry>
        </mxCell>
        <mxCell id="uIVDQIjMA6gFd7Pro6CU-55" value="OK" style="html=1;verticalAlign=bottom;endArrow=open;dashed=1;endSize=8;labelBackgroundColor=none;fontFamily=Verdana;fontSize=20;edgeStyle=elbowEdgeStyle;elbow=vertical;strokeWidth=2;fontStyle=1;" parent="1" target="uIVDQIjMA6gFd7Pro6CU-49" edge="1">
          <mxGeometry relative="1" as="geometry">
            <mxPoint x="143" y="1492" as="targetPoint" />
            <Array as="points">
              <mxPoint x="378" y="1492" />
            </Array>
            <mxPoint x="409" y="1492" as="sourcePoint" />
          </mxGeometry>
        </mxCell>
        <mxCell id="uIVDQIjMA6gFd7Pro6CU-56" value="" style="shape=cross;whiteSpace=wrap;html=1;fillColor=#000000;rotation=45;strokeWidth=2;fontSize=20;" parent="1" vertex="1">
          <mxGeometry x="406" y="1498" width="19" height="19" as="geometry" />
        </mxCell>
        <mxCell id="uIVDQIjMA6gFd7Pro6CU-58" value="" style="shape=cross;whiteSpace=wrap;html=1;fillColor=#000000;rotation=45;strokeWidth=2;fontSize=20;" parent="1" vertex="1">
          <mxGeometry x="61" y="1642" width="19" height="19" as="geometry" />
        </mxCell>
        <mxCell id="uIVDQIjMA6gFd7Pro6CU-59" value="" style="shape=cross;whiteSpace=wrap;html=1;fillColor=#000000;rotation=45;strokeWidth=2;fontSize=20;" parent="1" vertex="1">
          <mxGeometry x="932.9350288425444" y="1503.9350288425444" width="19" height="19" as="geometry" />
        </mxCell>
        <mxCell id="uIVDQIjMA6gFd7Pro6CU-60" value="displayComplaints()" style="html=1;verticalAlign=bottom;endArrow=open;dashed=1;endSize=8;labelBackgroundColor=none;fontFamily=Verdana;fontSize=20;edgeStyle=elbowEdgeStyle;elbow=vertical;strokeWidth=2;fontStyle=1;entryX=0.953;entryY=0.127;entryDx=0;entryDy=0;entryPerimeter=0;exitX=0.01;exitY=0.129;exitDx=0;exitDy=0;exitPerimeter=0;" parent="1" edge="1">
          <mxGeometry relative="1" as="geometry">
            <mxPoint x="75.52999999999997" y="1341.9560000000001" as="targetPoint" />
            <Array as="points">
              <mxPoint x="247" y="1341" />
            </Array>
            <mxPoint x="410.0999999999999" y="1340.7350000000001" as="sourcePoint" />
          </mxGeometry>
        </mxCell>
        <mxCell id="uIVDQIjMA6gFd7Pro6CU-61" value="selectComplaint ()" style="html=1;verticalAlign=bottom;endArrow=block;entryX=-0.17;entryY=0.28;labelBackgroundColor=none;fontFamily=Verdana;fontSize=20;edgeStyle=elbowEdgeStyle;elbow=vertical;strokeWidth=2;fontStyle=1;entryDx=0;entryDy=0;entryPerimeter=0;exitX=0.777;exitY=0.257;exitDx=0;exitDy=0;exitPerimeter=0;" parent="1" edge="1" source="uIVDQIjMA6gFd7Pro6CU-49">
          <mxGeometry relative="1" as="geometry">
            <mxPoint x="79" y="1372" as="sourcePoint" />
            <mxPoint x="408.29999999999995" y="1370.2000000000003" as="targetPoint" />
          </mxGeometry>
        </mxCell>
        <mxCell id="uIVDQIjMA6gFd7Pro6CU-70" value="" style="shape=cross;whiteSpace=wrap;html=1;fillColor=#000000;rotation=45;strokeWidth=2;fontSize=20;" parent="1" vertex="1">
          <mxGeometry x="702.9350288425444" y="1624.9350288425444" width="19" height="19" as="geometry" />
        </mxCell>
        <mxCell id="uIVDQIjMA6gFd7Pro6CU-80" value="" style="group" parent="1" vertex="1" connectable="0">
          <mxGeometry x="716" y="1467" width="223" height="35" as="geometry" />
        </mxCell>
        <mxCell id="uIVDQIjMA6gFd7Pro6CU-78" style="edgeStyle=orthogonalEdgeStyle;rounded=0;orthogonalLoop=1;jettySize=auto;html=1;entryX=1;entryY=0.259;entryDx=0;entryDy=0;entryPerimeter=0;strokeWidth=2;dashed=1;" parent="uIVDQIjMA6gFd7Pro6CU-80" edge="1">
          <mxGeometry relative="1" as="geometry">
            <mxPoint x="223" y="29.40000000000009" as="sourcePoint" />
            <mxPoint y="29.440000000000055" as="targetPoint" />
            <Array as="points">
              <mxPoint x="112" y="29" />
            </Array>
          </mxGeometry>
        </mxCell>
        <mxCell id="uIVDQIjMA6gFd7Pro6CU-79" value="&lt;b&gt;&lt;font style=&quot;font-size: 19px;&quot;&gt;OK&lt;/font&gt;&lt;/b&gt;" style="text;html=1;align=center;verticalAlign=middle;resizable=0;points=[];autosize=1;strokeColor=none;fillColor=none;" parent="uIVDQIjMA6gFd7Pro6CU-80" vertex="1">
          <mxGeometry x="78" width="47" height="35" as="geometry" />
        </mxCell>
        <mxCell id="uIVDQIjMA6gFd7Pro6CU-81" value="OK" style="html=1;verticalAlign=bottom;endArrow=open;dashed=1;endSize=8;labelBackgroundColor=none;fontFamily=Verdana;fontSize=20;edgeStyle=elbowEdgeStyle;elbow=vertical;strokeWidth=2;fontStyle=1;" parent="1" edge="1">
          <mxGeometry relative="1" as="geometry">
            <mxPoint x="76" y="1602" as="targetPoint" />
            <Array as="points">
              <mxPoint x="378" y="1602" />
            </Array>
            <mxPoint x="706" y="1602" as="sourcePoint" />
          </mxGeometry>
        </mxCell>
        <mxCell id="uIVDQIjMA6gFd7Pro6CU-82" value="&lt;font&gt;&lt;b&gt;Resolve Complaint&lt;/b&gt;&lt;/font&gt;" style="whiteSpace=wrap;html=1;strokeWidth=2;fontSize=20;" parent="1" vertex="1">
          <mxGeometry x="380" y="1082" width="283" height="60" as="geometry" />
        </mxCell>
        <mxCell id="SpGyAxDBSFVW8lquO75B-1" value="getComplaintHistory()" style="html=1;verticalAlign=bottom;endArrow=block;entryX=0;entryY=0;labelBackgroundColor=none;fontFamily=Verdana;fontSize=20;edgeStyle=elbowEdgeStyle;elbow=vertical;strokeWidth=2;fontStyle=1" edge="1" parent="1">
          <mxGeometry relative="1" as="geometry">
            <mxPoint x="71" y="1930" as="sourcePoint" />
            <mxPoint x="410" y="1930.0000000000005" as="targetPoint" />
          </mxGeometry>
        </mxCell>
        <mxCell id="SpGyAxDBSFVW8lquO75B-2" value=":frontend" style="shape=umlLifeline;perimeter=lifelinePerimeter;whiteSpace=wrap;html=1;container=1;collapsible=0;recursiveResize=0;outlineConnect=0;rounded=1;shadow=0;comic=0;labelBackgroundColor=none;strokeWidth=2;fontFamily=Verdana;fontSize=20;align=center;fontStyle=1" vertex="1" parent="1">
          <mxGeometry x="360" y="1800" width="111" height="326" as="geometry" />
        </mxCell>
        <mxCell id="SpGyAxDBSFVW8lquO75B-3" value="" style="html=1;points=[];perimeter=orthogonalPerimeter;rounded=0;shadow=0;comic=0;labelBackgroundColor=none;strokeWidth=2;fontFamily=Verdana;fontSize=20;align=center;fontStyle=1;whiteSpace=wrap;" vertex="1" parent="SpGyAxDBSFVW8lquO75B-2">
          <mxGeometry x="50" y="100" width="10" height="215" as="geometry" />
        </mxCell>
        <mxCell id="SpGyAxDBSFVW8lquO75B-4" value=":backend" style="shape=umlLifeline;perimeter=lifelinePerimeter;whiteSpace=wrap;html=1;container=1;collapsible=0;recursiveResize=0;outlineConnect=0;rounded=1;shadow=0;comic=0;labelBackgroundColor=none;strokeWidth=2;fontFamily=Verdana;fontSize=20;align=center;fontStyle=1" vertex="1" parent="1">
          <mxGeometry x="656" y="1799" width="112" height="381" as="geometry" />
        </mxCell>
        <mxCell id="SpGyAxDBSFVW8lquO75B-5" value="" style="html=1;points=[];perimeter=orthogonalPerimeter;rounded=0;shadow=0;comic=0;labelBackgroundColor=none;strokeWidth=2;fontFamily=Verdana;fontSize=20;align=center;fontStyle=1;whiteSpace=wrap;" vertex="1" parent="SpGyAxDBSFVW8lquO75B-4">
          <mxGeometry x="50" y="267" width="10" height="102" as="geometry" />
        </mxCell>
        <mxCell id="SpGyAxDBSFVW8lquO75B-6" value="validateFeedback()" style="html=1;verticalAlign=bottom;endArrow=block;labelBackgroundColor=none;fontFamily=Verdana;fontSize=20;edgeStyle=elbowEdgeStyle;elbow=vertical;strokeWidth=2;fontStyle=1;exitX=0.961;exitY=0.818;exitDx=0;exitDy=0;exitPerimeter=0;" edge="1" parent="SpGyAxDBSFVW8lquO75B-4" source="SpGyAxDBSFVW8lquO75B-3">
          <mxGeometry x="0.0004" relative="1" as="geometry">
            <mxPoint x="-260.9999999999999" y="275.06999999999994" as="sourcePoint" />
            <mxPoint x="50" y="276" as="targetPoint" />
            <Array as="points" />
            <mxPoint as="offset" />
          </mxGeometry>
        </mxCell>
        <mxCell id="SpGyAxDBSFVW8lquO75B-8" value=":Database" style="shape=umlLifeline;perimeter=lifelinePerimeter;whiteSpace=wrap;html=1;container=1;collapsible=0;recursiveResize=0;outlineConnect=0;rounded=1;shadow=0;comic=0;labelBackgroundColor=none;strokeWidth=2;fontFamily=Verdana;fontSize=20;align=center;fontStyle=1" vertex="1" parent="1">
          <mxGeometry x="880" y="1800" width="125" height="337" as="geometry" />
        </mxCell>
        <mxCell id="SpGyAxDBSFVW8lquO75B-9" value=":constituent" style="shape=umlLifeline;perimeter=lifelinePerimeter;whiteSpace=wrap;html=1;container=1;collapsible=0;recursiveResize=0;outlineConnect=0;rounded=1;shadow=0;comic=0;labelBackgroundColor=none;strokeWidth=2;fontFamily=Verdana;fontSize=20;align=center;fontStyle=1" vertex="1" parent="1">
          <mxGeometry y="1800" width="141" height="400" as="geometry" />
        </mxCell>
        <mxCell id="SpGyAxDBSFVW8lquO75B-10" value="" style="html=1;points=[];perimeter=orthogonalPerimeter;rounded=0;shadow=0;comic=0;labelBackgroundColor=none;strokeWidth=2;fontFamily=Verdana;fontSize=20;align=center;fontStyle=1;whiteSpace=wrap;" vertex="1" parent="SpGyAxDBSFVW8lquO75B-9">
          <mxGeometry x="66" y="100" width="10" height="287" as="geometry" />
        </mxCell>
        <mxCell id="SpGyAxDBSFVW8lquO75B-11" value="" style="html=1;points=[];perimeter=orthogonalPerimeter;rounded=0;shadow=0;comic=0;labelBackgroundColor=none;strokeWidth=2;fontFamily=Verdana;fontSize=20;align=center;fontStyle=1;whiteSpace=wrap;" vertex="1" parent="1">
          <mxGeometry x="939" y="2081" width="10" height="39" as="geometry" />
        </mxCell>
        <mxCell id="SpGyAxDBSFVW8lquO75B-12" value="storeFeedback()" style="html=1;verticalAlign=bottom;endArrow=block;labelBackgroundColor=none;fontFamily=Verdana;fontSize=20;edgeStyle=elbowEdgeStyle;elbow=vertical;strokeWidth=2;fontStyle=1;" edge="1" parent="1" source="SpGyAxDBSFVW8lquO75B-5">
          <mxGeometry x="0.0629" y="4" relative="1" as="geometry">
            <mxPoint x="700" y="2063" as="sourcePoint" />
            <mxPoint x="939" y="2092" as="targetPoint" />
            <Array as="points">
              <mxPoint x="878" y="2092" />
            </Array>
            <mxPoint as="offset" />
          </mxGeometry>
        </mxCell>
        <mxCell id="SpGyAxDBSFVW8lquO75B-14" value="" style="shape=cross;whiteSpace=wrap;html=1;fillColor=#000000;rotation=45;strokeWidth=2;fontSize=20;" vertex="1" parent="1">
          <mxGeometry x="406" y="2118" width="19" height="19" as="geometry" />
        </mxCell>
        <mxCell id="SpGyAxDBSFVW8lquO75B-15" value="" style="shape=cross;whiteSpace=wrap;html=1;fillColor=#000000;rotation=45;strokeWidth=2;fontSize=20;" vertex="1" parent="1">
          <mxGeometry x="61" y="2192" width="19" height="19" as="geometry" />
        </mxCell>
        <mxCell id="SpGyAxDBSFVW8lquO75B-16" value="" style="shape=cross;whiteSpace=wrap;html=1;fillColor=#000000;rotation=45;strokeWidth=2;fontSize=20;" vertex="1" parent="1">
          <mxGeometry x="932.9350288425444" y="2125.9350288425444" width="19" height="19" as="geometry" />
        </mxCell>
        <mxCell id="SpGyAxDBSFVW8lquO75B-17" value="displayComplaints()" style="html=1;verticalAlign=bottom;endArrow=open;dashed=1;endSize=8;labelBackgroundColor=none;fontFamily=Verdana;fontSize=20;edgeStyle=elbowEdgeStyle;elbow=vertical;strokeWidth=2;fontStyle=1;entryX=0.953;entryY=0.127;entryDx=0;entryDy=0;entryPerimeter=0;exitX=0.01;exitY=0.129;exitDx=0;exitDy=0;exitPerimeter=0;" edge="1" parent="1">
          <mxGeometry relative="1" as="geometry">
            <mxPoint x="75.52999999999997" y="1961.9560000000001" as="targetPoint" />
            <Array as="points">
              <mxPoint x="247" y="1961" />
            </Array>
            <mxPoint x="410.0999999999999" y="1960.7350000000001" as="sourcePoint" />
          </mxGeometry>
        </mxCell>
        <mxCell id="SpGyAxDBSFVW8lquO75B-18" value="selectComplaint ()" style="html=1;verticalAlign=bottom;endArrow=block;entryX=-0.17;entryY=0.28;labelBackgroundColor=none;fontFamily=Verdana;fontSize=20;edgeStyle=elbowEdgeStyle;elbow=vertical;strokeWidth=2;fontStyle=1;exitX=0.7;exitY=0.27;exitDx=0;exitDy=0;exitPerimeter=0;entryDx=0;entryDy=0;entryPerimeter=0;" edge="1" parent="1">
          <mxGeometry relative="1" as="geometry">
            <mxPoint x="73" y="1991.56" as="sourcePoint" />
            <mxPoint x="408.29999999999995" y="1990.2000000000003" as="targetPoint" />
          </mxGeometry>
        </mxCell>
        <mxCell id="SpGyAxDBSFVW8lquO75B-20" value="" style="shape=cross;whiteSpace=wrap;html=1;fillColor=#000000;rotation=45;strokeWidth=2;fontSize=20;" vertex="1" parent="1">
          <mxGeometry x="702.9350288425444" y="2182.9350288425444" width="19" height="19" as="geometry" />
        </mxCell>
        <mxCell id="SpGyAxDBSFVW8lquO75B-21" value="" style="group" vertex="1" connectable="0" parent="1">
          <mxGeometry x="716" y="2087" width="223" height="35" as="geometry" />
        </mxCell>
        <mxCell id="SpGyAxDBSFVW8lquO75B-22" style="edgeStyle=orthogonalEdgeStyle;rounded=0;orthogonalLoop=1;jettySize=auto;html=1;entryX=1;entryY=0.259;entryDx=0;entryDy=0;entryPerimeter=0;strokeWidth=2;dashed=1;" edge="1" parent="SpGyAxDBSFVW8lquO75B-21">
          <mxGeometry relative="1" as="geometry">
            <mxPoint x="223" y="29.40000000000009" as="sourcePoint" />
            <mxPoint y="29.440000000000055" as="targetPoint" />
            <Array as="points">
              <mxPoint x="112" y="29" />
            </Array>
          </mxGeometry>
        </mxCell>
        <mxCell id="SpGyAxDBSFVW8lquO75B-23" value="&lt;b&gt;&lt;font style=&quot;font-size: 19px;&quot;&gt;OK&lt;/font&gt;&lt;/b&gt;" style="text;html=1;align=center;verticalAlign=middle;resizable=0;points=[];autosize=1;strokeColor=none;fillColor=none;" vertex="1" parent="SpGyAxDBSFVW8lquO75B-21">
          <mxGeometry x="78" width="47" height="35" as="geometry" />
        </mxCell>
        <mxCell id="SpGyAxDBSFVW8lquO75B-24" value="OK" style="html=1;verticalAlign=bottom;endArrow=open;dashed=1;endSize=8;labelBackgroundColor=none;fontFamily=Verdana;fontSize=20;edgeStyle=elbowEdgeStyle;elbow=vertical;strokeWidth=2;fontStyle=1;" edge="1" parent="1">
          <mxGeometry relative="1" as="geometry">
            <mxPoint x="76" y="2161" as="targetPoint" />
            <Array as="points">
              <mxPoint x="378" y="2161" />
            </Array>
            <mxPoint x="706" y="2161" as="sourcePoint" />
          </mxGeometry>
        </mxCell>
        <mxCell id="SpGyAxDBSFVW8lquO75B-25" value="submitFeedback()" style="html=1;verticalAlign=bottom;endArrow=block;entryX=-0.17;entryY=0.28;labelBackgroundColor=none;fontFamily=Verdana;fontSize=20;edgeStyle=elbowEdgeStyle;elbow=vertical;strokeWidth=2;fontStyle=1;exitX=0.7;exitY=0.27;exitDx=0;exitDy=0;exitPerimeter=0;entryDx=0;entryDy=0;entryPerimeter=0;" edge="1" parent="1">
          <mxGeometry relative="1" as="geometry">
            <mxPoint x="73" y="2031.56" as="sourcePoint" />
            <mxPoint x="408.29999999999995" y="2030.2000000000003" as="targetPoint" />
          </mxGeometry>
        </mxCell>
        <mxCell id="SpGyAxDBSFVW8lquO75B-27" value="&lt;font&gt;&lt;b&gt;Submit Feedback&lt;/b&gt;&lt;/font&gt;" style="whiteSpace=wrap;html=1;strokeWidth=2;fontSize=20;" vertex="1" parent="1">
          <mxGeometry x="365" y="1696" width="283" height="60" as="geometry" />
        </mxCell>
        <mxCell id="SpGyAxDBSFVW8lquO75B-28" value="createEvent()" style="html=1;verticalAlign=bottom;endArrow=block;entryX=0;entryY=0;labelBackgroundColor=none;fontFamily=Verdana;fontSize=20;edgeStyle=elbowEdgeStyle;elbow=vertical;strokeWidth=2;fontStyle=1;exitX=1.049;exitY=0.106;exitDx=0;exitDy=0;exitPerimeter=0;" edge="1" parent="1" source="SpGyAxDBSFVW8lquO75B-36">
          <mxGeometry relative="1" as="geometry">
            <mxPoint x="71" y="2580" as="sourcePoint" />
            <mxPoint x="410" y="2580.0000000000005" as="targetPoint" />
          </mxGeometry>
        </mxCell>
        <mxCell id="SpGyAxDBSFVW8lquO75B-29" value=":frontend" style="shape=umlLifeline;perimeter=lifelinePerimeter;whiteSpace=wrap;html=1;container=1;collapsible=0;recursiveResize=0;outlineConnect=0;rounded=1;shadow=0;comic=0;labelBackgroundColor=none;strokeWidth=2;fontFamily=Verdana;fontSize=20;align=center;fontStyle=1" vertex="1" parent="1">
          <mxGeometry x="360" y="2450" width="111" height="375" as="geometry" />
        </mxCell>
        <mxCell id="SpGyAxDBSFVW8lquO75B-30" value="" style="html=1;points=[];perimeter=orthogonalPerimeter;rounded=0;shadow=0;comic=0;labelBackgroundColor=none;strokeWidth=2;fontFamily=Verdana;fontSize=20;align=center;fontStyle=1;whiteSpace=wrap;" vertex="1" parent="SpGyAxDBSFVW8lquO75B-29">
          <mxGeometry x="50" y="100" width="10" height="259" as="geometry" />
        </mxCell>
        <mxCell id="SpGyAxDBSFVW8lquO75B-31" value=":backend" style="shape=umlLifeline;perimeter=lifelinePerimeter;whiteSpace=wrap;html=1;container=1;collapsible=0;recursiveResize=0;outlineConnect=0;rounded=1;shadow=0;comic=0;labelBackgroundColor=none;strokeWidth=2;fontFamily=Verdana;fontSize=20;align=center;fontStyle=1" vertex="1" parent="1">
          <mxGeometry x="656" y="2449" width="112" height="447" as="geometry" />
        </mxCell>
        <mxCell id="SpGyAxDBSFVW8lquO75B-32" value="" style="html=1;points=[];perimeter=orthogonalPerimeter;rounded=0;shadow=0;comic=0;labelBackgroundColor=none;strokeWidth=2;fontFamily=Verdana;fontSize=20;align=center;fontStyle=1;whiteSpace=wrap;" vertex="1" parent="SpGyAxDBSFVW8lquO75B-31">
          <mxGeometry x="50" y="149" width="10" height="174" as="geometry" />
        </mxCell>
        <mxCell id="SpGyAxDBSFVW8lquO75B-33" value="validateDetails()" style="html=1;verticalAlign=bottom;endArrow=block;labelBackgroundColor=none;fontFamily=Verdana;fontSize=20;edgeStyle=elbowEdgeStyle;elbow=vertical;strokeWidth=2;fontStyle=1;exitX=0.961;exitY=0.818;exitDx=0;exitDy=0;exitPerimeter=0;" edge="1" parent="SpGyAxDBSFVW8lquO75B-31">
          <mxGeometry x="0.0004" relative="1" as="geometry">
            <mxPoint x="-236.38999999999987" y="157.8699999999999" as="sourcePoint" />
            <mxPoint x="50" y="157" as="targetPoint" />
            <Array as="points" />
            <mxPoint as="offset" />
          </mxGeometry>
        </mxCell>
        <mxCell id="SpGyAxDBSFVW8lquO75B-34" value=":Database" style="shape=umlLifeline;perimeter=lifelinePerimeter;whiteSpace=wrap;html=1;container=1;collapsible=0;recursiveResize=0;outlineConnect=0;rounded=1;shadow=0;comic=0;labelBackgroundColor=none;strokeWidth=2;fontFamily=Verdana;fontSize=20;align=center;fontStyle=1" vertex="1" parent="1">
          <mxGeometry x="880" y="2450" width="125" height="214" as="geometry" />
        </mxCell>
        <mxCell id="SpGyAxDBSFVW8lquO75B-35" value=":representative" style="shape=umlLifeline;perimeter=lifelinePerimeter;whiteSpace=wrap;html=1;container=1;collapsible=0;recursiveResize=0;outlineConnect=0;rounded=1;shadow=0;comic=0;labelBackgroundColor=none;strokeWidth=2;fontFamily=Verdana;fontSize=20;align=center;fontStyle=1" vertex="1" parent="1">
          <mxGeometry y="2450" width="179" height="381" as="geometry" />
        </mxCell>
        <mxCell id="SpGyAxDBSFVW8lquO75B-36" value="" style="html=1;points=[];perimeter=orthogonalPerimeter;rounded=0;shadow=0;comic=0;labelBackgroundColor=none;strokeWidth=2;fontFamily=Verdana;fontSize=20;align=center;fontStyle=1;whiteSpace=wrap;" vertex="1" parent="SpGyAxDBSFVW8lquO75B-35">
          <mxGeometry x="85" y="100" width="10" height="269" as="geometry" />
        </mxCell>
        <mxCell id="SpGyAxDBSFVW8lquO75B-37" value="" style="html=1;points=[];perimeter=orthogonalPerimeter;rounded=0;shadow=0;comic=0;labelBackgroundColor=none;strokeWidth=2;fontFamily=Verdana;fontSize=20;align=center;fontStyle=1;whiteSpace=wrap;" vertex="1" parent="1">
          <mxGeometry x="939" y="2623" width="10" height="36" as="geometry" />
        </mxCell>
        <mxCell id="SpGyAxDBSFVW8lquO75B-38" value="saveEvent()" style="html=1;verticalAlign=bottom;endArrow=block;labelBackgroundColor=none;fontFamily=Verdana;fontSize=20;edgeStyle=elbowEdgeStyle;elbow=vertical;strokeWidth=2;fontStyle=1;" edge="1" parent="1">
          <mxGeometry x="0.0629" y="4" relative="1" as="geometry">
            <mxPoint x="716" y="2628" as="sourcePoint" />
            <mxPoint x="939" y="2628" as="targetPoint" />
            <Array as="points">
              <mxPoint x="878" y="2628" />
            </Array>
            <mxPoint as="offset" />
          </mxGeometry>
        </mxCell>
        <mxCell id="SpGyAxDBSFVW8lquO75B-39" value="" style="shape=cross;whiteSpace=wrap;html=1;fillColor=#000000;rotation=45;strokeWidth=2;fontSize=20;" vertex="1" parent="1">
          <mxGeometry x="406" y="2838" width="19" height="19" as="geometry" />
        </mxCell>
        <mxCell id="SpGyAxDBSFVW8lquO75B-40" value="" style="shape=cross;whiteSpace=wrap;html=1;fillColor=#000000;rotation=45;strokeWidth=2;fontSize=20;" vertex="1" parent="1">
          <mxGeometry x="80" y="2826" width="19" height="19" as="geometry" />
        </mxCell>
        <mxCell id="SpGyAxDBSFVW8lquO75B-41" value="" style="shape=cross;whiteSpace=wrap;html=1;fillColor=#000000;rotation=45;strokeWidth=2;fontSize=20;" vertex="1" parent="1">
          <mxGeometry x="932.9350288425444" y="2662.9350288425444" width="19" height="19" as="geometry" />
        </mxCell>
        <mxCell id="SpGyAxDBSFVW8lquO75B-44" value="" style="shape=cross;whiteSpace=wrap;html=1;fillColor=#000000;rotation=45;strokeWidth=2;fontSize=20;" vertex="1" parent="1">
          <mxGeometry x="702.9350288425444" y="2886.9350288425444" width="19" height="19" as="geometry" />
        </mxCell>
        <mxCell id="SpGyAxDBSFVW8lquO75B-45" value="" style="group" vertex="1" connectable="0" parent="1">
          <mxGeometry x="716" y="2623" width="223" height="35" as="geometry" />
        </mxCell>
        <mxCell id="SpGyAxDBSFVW8lquO75B-46" style="edgeStyle=orthogonalEdgeStyle;rounded=0;orthogonalLoop=1;jettySize=auto;html=1;entryX=1;entryY=0.259;entryDx=0;entryDy=0;entryPerimeter=0;strokeWidth=2;dashed=1;" edge="1" parent="SpGyAxDBSFVW8lquO75B-45">
          <mxGeometry relative="1" as="geometry">
            <mxPoint x="223" y="29.40000000000009" as="sourcePoint" />
            <mxPoint y="29.440000000000055" as="targetPoint" />
            <Array as="points">
              <mxPoint x="112" y="29" />
            </Array>
          </mxGeometry>
        </mxCell>
        <mxCell id="SpGyAxDBSFVW8lquO75B-47" value="&lt;b&gt;&lt;font style=&quot;font-size: 19px;&quot;&gt;OK&lt;/font&gt;&lt;/b&gt;" style="text;html=1;align=center;verticalAlign=middle;resizable=0;points=[];autosize=1;strokeColor=none;fillColor=none;" vertex="1" parent="SpGyAxDBSFVW8lquO75B-45">
          <mxGeometry x="78" width="47" height="35" as="geometry" />
        </mxCell>
        <mxCell id="SpGyAxDBSFVW8lquO75B-48" value="OK" style="html=1;verticalAlign=bottom;endArrow=open;dashed=1;endSize=8;labelBackgroundColor=none;fontFamily=Verdana;fontSize=20;edgeStyle=elbowEdgeStyle;elbow=vertical;strokeWidth=2;fontStyle=1;entryX=1.1;entryY=0.857;entryDx=0;entryDy=0;entryPerimeter=0;" edge="1" parent="1" target="SpGyAxDBSFVW8lquO75B-30">
          <mxGeometry relative="1" as="geometry">
            <mxPoint x="501" y="2783" as="targetPoint" />
            <Array as="points">
              <mxPoint x="421" y="2771" />
            </Array>
            <mxPoint x="706" y="2771" as="sourcePoint" />
          </mxGeometry>
        </mxCell>
        <mxCell id="SpGyAxDBSFVW8lquO75B-50" value="updateEventCalender()" style="html=1;verticalAlign=bottom;endArrow=block;labelBackgroundColor=none;fontFamily=Verdana;fontSize=20;elbow=vertical;edgeStyle=orthogonalEdgeStyle;curved=1;exitX=1;exitY=0.14;exitPerimeter=0;strokeWidth=2;fontStyle=1;exitDx=0;exitDy=0;entryX=1.099;entryY=0.303;entryDx=0;entryDy=0;entryPerimeter=0;" edge="1" parent="1">
          <mxGeometry x="-0.2333" y="83" relative="1" as="geometry">
            <mxPoint x="716" y="2709" as="sourcePoint" />
            <mxPoint x="716.99" y="2746.49" as="targetPoint" />
            <Array as="points">
              <mxPoint x="776" y="2708.8" />
              <mxPoint x="776" y="2746.8" />
            </Array>
            <mxPoint as="offset" />
          </mxGeometry>
        </mxCell>
        <mxCell id="SpGyAxDBSFVW8lquO75B-56" value="&lt;font&gt;&lt;b&gt;Post Event&lt;/b&gt;&lt;/font&gt;" style="whiteSpace=wrap;html=1;strokeWidth=2;fontSize=20;" vertex="1" parent="1">
          <mxGeometry x="337" y="2318" width="283" height="60" as="geometry" />
        </mxCell>
        <mxCell id="SpGyAxDBSFVW8lquO75B-57" value="updateComplaintStatus()" style="html=1;verticalAlign=bottom;endArrow=block;entryX=-0.17;entryY=0.28;labelBackgroundColor=none;fontFamily=Verdana;fontSize=20;edgeStyle=elbowEdgeStyle;elbow=vertical;strokeWidth=2;fontStyle=1;exitX=0.898;exitY=0.37;exitDx=0;exitDy=0;exitPerimeter=0;entryDx=0;entryDy=0;entryPerimeter=0;" edge="1" parent="1" source="uIVDQIjMA6gFd7Pro6CU-49">
          <mxGeometry relative="1" as="geometry">
            <mxPoint x="74" y="1411.56" as="sourcePoint" />
            <mxPoint x="409.29999999999995" y="1410.2000000000003" as="targetPoint" />
          </mxGeometry>
        </mxCell>
        <mxCell id="SpGyAxDBSFVW8lquO75B-58" value="enterDetails()" style="html=1;verticalAlign=bottom;endArrow=block;entryX=0;entryY=0;labelBackgroundColor=none;fontFamily=Verdana;fontSize=20;edgeStyle=elbowEdgeStyle;elbow=vertical;strokeWidth=2;fontStyle=1;exitX=1.015;exitY=0.118;exitDx=0;exitDy=0;exitPerimeter=0;" edge="1" parent="1" source="SpGyAxDBSFVW8lquO75B-66">
          <mxGeometry relative="1" as="geometry">
            <mxPoint x="71" y="3170" as="sourcePoint" />
            <mxPoint x="410" y="3170.0000000000005" as="targetPoint" />
          </mxGeometry>
        </mxCell>
        <mxCell id="SpGyAxDBSFVW8lquO75B-59" value=":frontend" style="shape=umlLifeline;perimeter=lifelinePerimeter;whiteSpace=wrap;html=1;container=1;collapsible=0;recursiveResize=0;outlineConnect=0;rounded=1;shadow=0;comic=0;labelBackgroundColor=none;strokeWidth=2;fontFamily=Verdana;fontSize=20;align=center;fontStyle=1" vertex="1" parent="1">
          <mxGeometry x="360" y="3040" width="111" height="263" as="geometry" />
        </mxCell>
        <mxCell id="SpGyAxDBSFVW8lquO75B-60" value="" style="html=1;points=[];perimeter=orthogonalPerimeter;rounded=0;shadow=0;comic=0;labelBackgroundColor=none;strokeWidth=2;fontFamily=Verdana;fontSize=20;align=center;fontStyle=1;whiteSpace=wrap;" vertex="1" parent="SpGyAxDBSFVW8lquO75B-59">
          <mxGeometry x="50" y="100" width="10" height="147" as="geometry" />
        </mxCell>
        <mxCell id="SpGyAxDBSFVW8lquO75B-61" value=":backend" style="shape=umlLifeline;perimeter=lifelinePerimeter;whiteSpace=wrap;html=1;container=1;collapsible=0;recursiveResize=0;outlineConnect=0;rounded=1;shadow=0;comic=0;labelBackgroundColor=none;strokeWidth=2;fontFamily=Verdana;fontSize=20;align=center;fontStyle=1" vertex="1" parent="1">
          <mxGeometry x="656" y="3039" width="112" height="348" as="geometry" />
        </mxCell>
        <mxCell id="SpGyAxDBSFVW8lquO75B-62" value="" style="html=1;points=[];perimeter=orthogonalPerimeter;rounded=0;shadow=0;comic=0;labelBackgroundColor=none;strokeWidth=2;fontFamily=Verdana;fontSize=20;align=center;fontStyle=1;whiteSpace=wrap;" vertex="1" parent="SpGyAxDBSFVW8lquO75B-61">
          <mxGeometry x="50" y="142" width="10" height="191" as="geometry" />
        </mxCell>
        <mxCell id="SpGyAxDBSFVW8lquO75B-63" value="validateDetails()" style="html=1;verticalAlign=bottom;endArrow=block;labelBackgroundColor=none;fontFamily=Verdana;fontSize=20;edgeStyle=elbowEdgeStyle;elbow=vertical;strokeWidth=2;fontStyle=1;exitX=0.961;exitY=0.818;exitDx=0;exitDy=0;exitPerimeter=0;" edge="1" parent="SpGyAxDBSFVW8lquO75B-61">
          <mxGeometry x="0.0004" relative="1" as="geometry">
            <mxPoint x="-236.38999999999987" y="166.8699999999999" as="sourcePoint" />
            <mxPoint x="50" y="166" as="targetPoint" />
            <Array as="points" />
            <mxPoint as="offset" />
          </mxGeometry>
        </mxCell>
        <mxCell id="SpGyAxDBSFVW8lquO75B-64" value=":ZoomApi" style="shape=umlLifeline;perimeter=lifelinePerimeter;whiteSpace=wrap;html=1;container=1;collapsible=0;recursiveResize=0;outlineConnect=0;rounded=1;shadow=0;comic=0;labelBackgroundColor=none;strokeWidth=2;fontFamily=Verdana;fontSize=20;align=center;fontStyle=1" vertex="1" parent="1">
          <mxGeometry x="881" y="3040" width="125" height="236" as="geometry" />
        </mxCell>
        <mxCell id="SpGyAxDBSFVW8lquO75B-65" value=":representative" style="shape=umlLifeline;perimeter=lifelinePerimeter;whiteSpace=wrap;html=1;container=1;collapsible=0;recursiveResize=0;outlineConnect=0;rounded=1;shadow=0;comic=0;labelBackgroundColor=none;strokeWidth=2;fontFamily=Verdana;fontSize=20;align=center;fontStyle=1" vertex="1" parent="1">
          <mxGeometry y="3040" width="179" height="347" as="geometry" />
        </mxCell>
        <mxCell id="SpGyAxDBSFVW8lquO75B-66" value="" style="html=1;points=[];perimeter=orthogonalPerimeter;rounded=0;shadow=0;comic=0;labelBackgroundColor=none;strokeWidth=2;fontFamily=Verdana;fontSize=20;align=center;fontStyle=1;whiteSpace=wrap;" vertex="1" parent="SpGyAxDBSFVW8lquO75B-65">
          <mxGeometry x="84" y="100" width="10" height="240" as="geometry" />
        </mxCell>
        <mxCell id="SpGyAxDBSFVW8lquO75B-67" value="" style="html=1;points=[];perimeter=orthogonalPerimeter;rounded=0;shadow=0;comic=0;labelBackgroundColor=none;strokeWidth=2;fontFamily=Verdana;fontSize=20;align=center;fontStyle=1;whiteSpace=wrap;" vertex="1" parent="1">
          <mxGeometry x="939" y="3226" width="10" height="36" as="geometry" />
        </mxCell>
        <mxCell id="SpGyAxDBSFVW8lquO75B-68" value="scheduleMeeting()" style="html=1;verticalAlign=bottom;endArrow=block;labelBackgroundColor=none;fontFamily=Verdana;fontSize=20;edgeStyle=elbowEdgeStyle;elbow=vertical;strokeWidth=2;fontStyle=1;" edge="1" parent="1">
          <mxGeometry x="0.0629" y="4" relative="1" as="geometry">
            <mxPoint x="716" y="3229" as="sourcePoint" />
            <mxPoint x="939" y="3229" as="targetPoint" />
            <Array as="points">
              <mxPoint x="878" y="3229" />
            </Array>
            <mxPoint as="offset" />
          </mxGeometry>
        </mxCell>
        <mxCell id="SpGyAxDBSFVW8lquO75B-69" value="" style="shape=cross;whiteSpace=wrap;html=1;fillColor=#000000;rotation=45;strokeWidth=2;fontSize=20;" vertex="1" parent="1">
          <mxGeometry x="406" y="3298" width="19" height="19" as="geometry" />
        </mxCell>
        <mxCell id="SpGyAxDBSFVW8lquO75B-70" value="" style="shape=cross;whiteSpace=wrap;html=1;fillColor=#000000;rotation=45;strokeWidth=2;fontSize=20;" vertex="1" parent="1">
          <mxGeometry x="79" y="3389" width="19" height="19" as="geometry" />
        </mxCell>
        <mxCell id="SpGyAxDBSFVW8lquO75B-71" value="" style="shape=cross;whiteSpace=wrap;html=1;fillColor=#000000;rotation=45;strokeWidth=2;fontSize=20;" vertex="1" parent="1">
          <mxGeometry x="933.9350288425444" y="3270.9350288425444" width="19" height="19" as="geometry" />
        </mxCell>
        <mxCell id="SpGyAxDBSFVW8lquO75B-72" value="selectComplaint ()" style="html=1;verticalAlign=bottom;endArrow=block;entryX=-0.17;entryY=0.28;labelBackgroundColor=none;fontFamily=Verdana;fontSize=20;edgeStyle=elbowEdgeStyle;elbow=vertical;strokeWidth=2;fontStyle=1;exitX=0.893;exitY=0.38;exitDx=0;exitDy=0;exitPerimeter=0;entryDx=0;entryDy=0;entryPerimeter=0;" edge="1" parent="1" source="SpGyAxDBSFVW8lquO75B-66">
          <mxGeometry relative="1" as="geometry">
            <mxPoint x="73" y="3231.56" as="sourcePoint" />
            <mxPoint x="408.29999999999995" y="3230.2000000000003" as="targetPoint" />
          </mxGeometry>
        </mxCell>
        <mxCell id="SpGyAxDBSFVW8lquO75B-73" value="" style="shape=cross;whiteSpace=wrap;html=1;fillColor=#000000;rotation=45;strokeWidth=2;fontSize=20;" vertex="1" parent="1">
          <mxGeometry x="702.9350288425444" y="3380.9350288425444" width="19" height="19" as="geometry" />
        </mxCell>
        <mxCell id="SpGyAxDBSFVW8lquO75B-74" value="" style="group" vertex="1" connectable="0" parent="1">
          <mxGeometry x="716" y="3231" width="223" height="35" as="geometry" />
        </mxCell>
        <mxCell id="SpGyAxDBSFVW8lquO75B-75" style="edgeStyle=orthogonalEdgeStyle;rounded=0;orthogonalLoop=1;jettySize=auto;html=1;entryX=1;entryY=0.259;entryDx=0;entryDy=0;entryPerimeter=0;strokeWidth=2;dashed=1;" edge="1" parent="SpGyAxDBSFVW8lquO75B-74">
          <mxGeometry relative="1" as="geometry">
            <mxPoint x="223" y="29.40000000000009" as="sourcePoint" />
            <mxPoint y="29.440000000000055" as="targetPoint" />
            <Array as="points">
              <mxPoint x="112" y="29" />
            </Array>
          </mxGeometry>
        </mxCell>
        <mxCell id="SpGyAxDBSFVW8lquO75B-76" value="&lt;b&gt;&lt;font style=&quot;font-size: 19px;&quot;&gt;meeting link&lt;/font&gt;&lt;/b&gt;" style="text;html=1;align=center;verticalAlign=middle;resizable=0;points=[];autosize=1;strokeColor=none;fillColor=none;" vertex="1" parent="SpGyAxDBSFVW8lquO75B-74">
          <mxGeometry x="37" width="129" height="35" as="geometry" />
        </mxCell>
        <mxCell id="SpGyAxDBSFVW8lquO75B-77" value="OK" style="html=1;verticalAlign=bottom;endArrow=open;dashed=1;endSize=8;labelBackgroundColor=none;fontFamily=Verdana;fontSize=20;edgeStyle=elbowEdgeStyle;elbow=vertical;strokeWidth=2;fontStyle=1;entryX=1.09;entryY=0.949;entryDx=0;entryDy=0;entryPerimeter=0;" edge="1" parent="1" target="SpGyAxDBSFVW8lquO75B-66">
          <mxGeometry relative="1" as="geometry">
            <mxPoint x="92.17999999999984" y="3367.7619999999997" as="targetPoint" />
            <Array as="points">
              <mxPoint x="378" y="3367" />
            </Array>
            <mxPoint x="706" y="3367" as="sourcePoint" />
          </mxGeometry>
        </mxCell>
        <mxCell id="SpGyAxDBSFVW8lquO75B-78" value="submitFeedback()" style="html=1;verticalAlign=bottom;endArrow=block;entryX=-0.17;entryY=0.28;labelBackgroundColor=none;fontFamily=Verdana;fontSize=20;edgeStyle=elbowEdgeStyle;elbow=vertical;strokeWidth=2;fontStyle=1;exitX=0.918;exitY=0.545;exitDx=0;exitDy=0;exitPerimeter=0;entryDx=0;entryDy=0;entryPerimeter=0;" edge="1" parent="1" source="SpGyAxDBSFVW8lquO75B-66">
          <mxGeometry relative="1" as="geometry">
            <mxPoint x="73" y="3271.56" as="sourcePoint" />
            <mxPoint x="408.29999999999995" y="3270.2000000000003" as="targetPoint" />
          </mxGeometry>
        </mxCell>
        <mxCell id="SpGyAxDBSFVW8lquO75B-84" value=":Database" style="shape=umlLifeline;perimeter=lifelinePerimeter;whiteSpace=wrap;html=1;container=1;collapsible=0;recursiveResize=0;outlineConnect=0;rounded=1;shadow=0;comic=0;labelBackgroundColor=none;strokeWidth=2;fontFamily=Verdana;fontSize=20;align=center;fontStyle=1" vertex="1" parent="1">
          <mxGeometry x="1117" y="3040" width="125" height="322" as="geometry" />
        </mxCell>
        <mxCell id="SpGyAxDBSFVW8lquO75B-85" value="" style="html=1;points=[];perimeter=orthogonalPerimeter;rounded=0;shadow=0;comic=0;labelBackgroundColor=none;strokeWidth=2;fontFamily=Verdana;fontSize=20;align=center;fontStyle=1;whiteSpace=wrap;" vertex="1" parent="1">
          <mxGeometry x="1174" y="3321" width="10" height="36" as="geometry" />
        </mxCell>
        <mxCell id="SpGyAxDBSFVW8lquO75B-86" value="saveMeetingDetails()" style="html=1;verticalAlign=bottom;endArrow=block;labelBackgroundColor=none;fontFamily=Verdana;fontSize=20;edgeStyle=elbowEdgeStyle;elbow=vertical;strokeWidth=2;fontStyle=1;exitX=0.907;exitY=0.758;exitDx=0;exitDy=0;exitPerimeter=0;" edge="1" parent="1" source="SpGyAxDBSFVW8lquO75B-62">
          <mxGeometry x="0.0629" y="4" relative="1" as="geometry">
            <mxPoint x="950" y="3326" as="sourcePoint" />
            <mxPoint x="1173" y="3326" as="targetPoint" />
            <Array as="points">
              <mxPoint x="1112" y="3326" />
            </Array>
            <mxPoint as="offset" />
          </mxGeometry>
        </mxCell>
        <mxCell id="SpGyAxDBSFVW8lquO75B-87" value="" style="shape=cross;whiteSpace=wrap;html=1;fillColor=#000000;rotation=45;strokeWidth=2;fontSize=20;" vertex="1" parent="1">
          <mxGeometry x="1169.9350288425444" y="3360.9350288425444" width="19" height="19" as="geometry" />
        </mxCell>
        <mxCell id="SpGyAxDBSFVW8lquO75B-89" value="" style="group" vertex="1" connectable="0" parent="1">
          <mxGeometry x="717" y="3321" width="456" height="35" as="geometry" />
        </mxCell>
        <mxCell id="SpGyAxDBSFVW8lquO75B-90" style="edgeStyle=orthogonalEdgeStyle;rounded=0;orthogonalLoop=1;jettySize=auto;html=1;entryX=1;entryY=0.259;entryDx=0;entryDy=0;entryPerimeter=0;strokeWidth=2;dashed=1;" edge="1" parent="SpGyAxDBSFVW8lquO75B-89">
          <mxGeometry relative="1" as="geometry">
            <mxPoint x="456.00000000000006" y="29.40000000000009" as="sourcePoint" />
            <mxPoint y="29.440000000000055" as="targetPoint" />
            <Array as="points">
              <mxPoint x="229.0224215246637" y="29" />
            </Array>
          </mxGeometry>
        </mxCell>
        <mxCell id="SpGyAxDBSFVW8lquO75B-91" value="&lt;b&gt;&lt;font style=&quot;font-size: 19px;&quot;&gt;OK&lt;/font&gt;&lt;/b&gt;" style="text;html=1;align=center;verticalAlign=middle;resizable=0;points=[];autosize=1;strokeColor=none;fillColor=none;" vertex="1" parent="SpGyAxDBSFVW8lquO75B-89">
          <mxGeometry x="159.49775784753365" width="47" height="35" as="geometry" />
        </mxCell>
        <mxCell id="SpGyAxDBSFVW8lquO75B-95" value="&lt;font&gt;&lt;b&gt;Post Virtual Meetup&lt;/b&gt;&lt;/font&gt;" style="whiteSpace=wrap;html=1;strokeWidth=2;fontSize=20;" vertex="1" parent="1">
          <mxGeometry x="356" y="2967" width="283" height="60" as="geometry" />
        </mxCell>
        <mxCell id="SpGyAxDBSFVW8lquO75B-96" value="viewMeeting()" style="html=1;verticalAlign=bottom;endArrow=block;labelBackgroundColor=none;fontFamily=Verdana;fontSize=20;edgeStyle=elbowEdgeStyle;elbow=vertical;strokeWidth=2;fontStyle=1;exitX=1.015;exitY=0.118;exitDx=0;exitDy=0;exitPerimeter=0;" edge="1" parent="1" source="SpGyAxDBSFVW8lquO75B-104" target="SpGyAxDBSFVW8lquO75B-98">
          <mxGeometry relative="1" as="geometry">
            <mxPoint x="71" y="3650" as="sourcePoint" />
            <mxPoint x="409" y="3654" as="targetPoint" />
          </mxGeometry>
        </mxCell>
        <mxCell id="SpGyAxDBSFVW8lquO75B-97" value=":frontend" style="shape=umlLifeline;perimeter=lifelinePerimeter;whiteSpace=wrap;html=1;container=1;collapsible=0;recursiveResize=0;outlineConnect=0;rounded=1;shadow=0;comic=0;labelBackgroundColor=none;strokeWidth=2;fontFamily=Verdana;fontSize=20;align=center;fontStyle=1" vertex="1" parent="1">
          <mxGeometry x="360" y="3520" width="111" height="263" as="geometry" />
        </mxCell>
        <mxCell id="SpGyAxDBSFVW8lquO75B-98" value="" style="html=1;points=[];perimeter=orthogonalPerimeter;rounded=0;shadow=0;comic=0;labelBackgroundColor=none;strokeWidth=2;fontFamily=Verdana;fontSize=20;align=center;fontStyle=1;whiteSpace=wrap;" vertex="1" parent="SpGyAxDBSFVW8lquO75B-97">
          <mxGeometry x="50" y="100" width="10" height="147" as="geometry" />
        </mxCell>
        <mxCell id="SpGyAxDBSFVW8lquO75B-99" value=":backend" style="shape=umlLifeline;perimeter=lifelinePerimeter;whiteSpace=wrap;html=1;container=1;collapsible=0;recursiveResize=0;outlineConnect=0;rounded=1;shadow=0;comic=0;labelBackgroundColor=none;strokeWidth=2;fontFamily=Verdana;fontSize=20;align=center;fontStyle=1" vertex="1" parent="1">
          <mxGeometry x="656" y="3519" width="112" height="336" as="geometry" />
        </mxCell>
        <mxCell id="SpGyAxDBSFVW8lquO75B-100" value="" style="html=1;points=[];perimeter=orthogonalPerimeter;rounded=0;shadow=0;comic=0;labelBackgroundColor=none;strokeWidth=2;fontFamily=Verdana;fontSize=20;align=center;fontStyle=1;whiteSpace=wrap;" vertex="1" parent="SpGyAxDBSFVW8lquO75B-99">
          <mxGeometry x="50" y="142" width="10" height="181" as="geometry" />
        </mxCell>
        <mxCell id="SpGyAxDBSFVW8lquO75B-101" value="validateRequest()" style="html=1;verticalAlign=bottom;endArrow=block;labelBackgroundColor=none;fontFamily=Verdana;fontSize=20;edgeStyle=elbowEdgeStyle;elbow=vertical;strokeWidth=2;fontStyle=1;exitX=0.961;exitY=0.818;exitDx=0;exitDy=0;exitPerimeter=0;" edge="1" parent="SpGyAxDBSFVW8lquO75B-99">
          <mxGeometry x="0.0004" relative="1" as="geometry">
            <mxPoint x="-236.38999999999987" y="215.8699999999999" as="sourcePoint" />
            <mxPoint x="50" y="215" as="targetPoint" />
            <Array as="points" />
            <mxPoint as="offset" />
          </mxGeometry>
        </mxCell>
        <mxCell id="SpGyAxDBSFVW8lquO75B-102" value=":ZoomApi" style="shape=umlLifeline;perimeter=lifelinePerimeter;whiteSpace=wrap;html=1;container=1;collapsible=0;recursiveResize=0;outlineConnect=0;rounded=1;shadow=0;comic=0;labelBackgroundColor=none;strokeWidth=2;fontFamily=Verdana;fontSize=20;align=center;fontStyle=1" vertex="1" parent="1">
          <mxGeometry x="881" y="3520" width="125" height="292" as="geometry" />
        </mxCell>
        <mxCell id="SpGyAxDBSFVW8lquO75B-103" value=":constituent" style="shape=umlLifeline;perimeter=lifelinePerimeter;whiteSpace=wrap;html=1;container=1;collapsible=0;recursiveResize=0;outlineConnect=0;rounded=1;shadow=0;comic=0;labelBackgroundColor=none;strokeWidth=2;fontFamily=Verdana;fontSize=20;align=center;fontStyle=1" vertex="1" parent="1">
          <mxGeometry y="3520" width="179" height="347" as="geometry" />
        </mxCell>
        <mxCell id="SpGyAxDBSFVW8lquO75B-104" value="" style="html=1;points=[];perimeter=orthogonalPerimeter;rounded=0;shadow=0;comic=0;labelBackgroundColor=none;strokeWidth=2;fontFamily=Verdana;fontSize=20;align=center;fontStyle=1;whiteSpace=wrap;" vertex="1" parent="SpGyAxDBSFVW8lquO75B-103">
          <mxGeometry x="84" y="100" width="10" height="240" as="geometry" />
        </mxCell>
        <mxCell id="SpGyAxDBSFVW8lquO75B-105" value="" style="html=1;points=[];perimeter=orthogonalPerimeter;rounded=0;shadow=0;comic=0;labelBackgroundColor=none;strokeWidth=2;fontFamily=Verdana;fontSize=20;align=center;fontStyle=1;whiteSpace=wrap;" vertex="1" parent="1">
          <mxGeometry x="939" y="3766" width="10" height="36" as="geometry" />
        </mxCell>
        <mxCell id="SpGyAxDBSFVW8lquO75B-106" value="validateMeeting()" style="html=1;verticalAlign=bottom;endArrow=block;labelBackgroundColor=none;fontFamily=Verdana;fontSize=20;edgeStyle=elbowEdgeStyle;elbow=vertical;strokeWidth=2;fontStyle=1;" edge="1" parent="1">
          <mxGeometry x="0.0629" y="4" relative="1" as="geometry">
            <mxPoint x="716" y="3769" as="sourcePoint" />
            <mxPoint x="939" y="3769" as="targetPoint" />
            <Array as="points">
              <mxPoint x="878" y="3769" />
            </Array>
            <mxPoint as="offset" />
          </mxGeometry>
        </mxCell>
        <mxCell id="SpGyAxDBSFVW8lquO75B-107" value="" style="shape=cross;whiteSpace=wrap;html=1;fillColor=#000000;rotation=45;strokeWidth=2;fontSize=20;" vertex="1" parent="1">
          <mxGeometry x="406" y="3778" width="19" height="19" as="geometry" />
        </mxCell>
        <mxCell id="SpGyAxDBSFVW8lquO75B-108" value="" style="shape=cross;whiteSpace=wrap;html=1;fillColor=#000000;rotation=45;strokeWidth=2;fontSize=20;" vertex="1" parent="1">
          <mxGeometry x="79" y="3869" width="19" height="19" as="geometry" />
        </mxCell>
        <mxCell id="SpGyAxDBSFVW8lquO75B-109" value="" style="shape=cross;whiteSpace=wrap;html=1;fillColor=#000000;rotation=45;strokeWidth=2;fontSize=20;" vertex="1" parent="1">
          <mxGeometry x="933.9350288425444" y="3806.9350288425444" width="19" height="19" as="geometry" />
        </mxCell>
        <mxCell id="SpGyAxDBSFVW8lquO75B-110" value="joinMeeting()" style="html=1;verticalAlign=bottom;endArrow=block;entryX=-0.17;entryY=0.28;labelBackgroundColor=none;fontFamily=Verdana;fontSize=20;edgeStyle=elbowEdgeStyle;elbow=vertical;strokeWidth=2;fontStyle=1;exitX=0.893;exitY=0.38;exitDx=0;exitDy=0;exitPerimeter=0;entryDx=0;entryDy=0;entryPerimeter=0;" edge="1" parent="1" source="SpGyAxDBSFVW8lquO75B-104">
          <mxGeometry relative="1" as="geometry">
            <mxPoint x="73" y="3711.56" as="sourcePoint" />
            <mxPoint x="408.29999999999995" y="3710.2000000000003" as="targetPoint" />
          </mxGeometry>
        </mxCell>
        <mxCell id="SpGyAxDBSFVW8lquO75B-111" value="" style="shape=cross;whiteSpace=wrap;html=1;fillColor=#000000;rotation=45;strokeWidth=2;fontSize=20;" vertex="1" parent="1">
          <mxGeometry x="702.9350288425444" y="3850.9350288425444" width="19" height="19" as="geometry" />
        </mxCell>
        <mxCell id="SpGyAxDBSFVW8lquO75B-112" value="" style="group" vertex="1" connectable="0" parent="1">
          <mxGeometry x="716" y="3771" width="223" height="35" as="geometry" />
        </mxCell>
        <mxCell id="SpGyAxDBSFVW8lquO75B-113" style="edgeStyle=orthogonalEdgeStyle;rounded=0;orthogonalLoop=1;jettySize=auto;html=1;entryX=1;entryY=0.259;entryDx=0;entryDy=0;entryPerimeter=0;strokeWidth=2;dashed=1;" edge="1" parent="SpGyAxDBSFVW8lquO75B-112">
          <mxGeometry relative="1" as="geometry">
            <mxPoint x="223" y="29.40000000000009" as="sourcePoint" />
            <mxPoint y="29.440000000000055" as="targetPoint" />
            <Array as="points">
              <mxPoint x="112" y="29" />
            </Array>
          </mxGeometry>
        </mxCell>
        <mxCell id="SpGyAxDBSFVW8lquO75B-114" value="&lt;b&gt;&lt;font style=&quot;font-size: 19px;&quot;&gt;OK&lt;/font&gt;&lt;/b&gt;" style="text;html=1;align=center;verticalAlign=middle;resizable=0;points=[];autosize=1;strokeColor=none;fillColor=none;" vertex="1" parent="SpGyAxDBSFVW8lquO75B-112">
          <mxGeometry x="78" width="47" height="35" as="geometry" />
        </mxCell>
        <mxCell id="SpGyAxDBSFVW8lquO75B-115" value="OK" style="html=1;verticalAlign=bottom;endArrow=open;dashed=1;endSize=8;labelBackgroundColor=none;fontFamily=Verdana;fontSize=20;edgeStyle=elbowEdgeStyle;elbow=vertical;strokeWidth=2;fontStyle=1;entryX=1.09;entryY=0.949;entryDx=0;entryDy=0;entryPerimeter=0;" edge="1" parent="1">
          <mxGeometry relative="1" as="geometry">
            <mxPoint x="94.90000000000009" y="3830.76" as="targetPoint" />
            <Array as="points">
              <mxPoint x="378" y="3830" />
            </Array>
            <mxPoint x="706" y="3830" as="sourcePoint" />
          </mxGeometry>
        </mxCell>
        <mxCell id="SpGyAxDBSFVW8lquO75B-116" value="submitFeedback()" style="html=1;verticalAlign=bottom;endArrow=block;entryX=-0.17;entryY=0.28;labelBackgroundColor=none;fontFamily=Verdana;fontSize=20;edgeStyle=elbowEdgeStyle;elbow=vertical;strokeWidth=2;fontStyle=1;exitX=0.918;exitY=0.545;exitDx=0;exitDy=0;exitPerimeter=0;entryDx=0;entryDy=0;entryPerimeter=0;" edge="1" parent="1" source="SpGyAxDBSFVW8lquO75B-104">
          <mxGeometry relative="1" as="geometry">
            <mxPoint x="73" y="3751.56" as="sourcePoint" />
            <mxPoint x="408.29999999999995" y="3750.2000000000003" as="targetPoint" />
          </mxGeometry>
        </mxCell>
        <mxCell id="SpGyAxDBSFVW8lquO75B-124" value="&lt;font&gt;&lt;b&gt;Join Virtual Meetup&lt;/b&gt;&lt;/font&gt;" style="whiteSpace=wrap;html=1;strokeWidth=2;fontSize=20;" vertex="1" parent="1">
          <mxGeometry x="383" y="3447" width="283" height="60" as="geometry" />
        </mxCell>
        <mxCell id="SpGyAxDBSFVW8lquO75B-132" value="display list" style="html=1;verticalAlign=bottom;endArrow=open;dashed=1;endSize=8;labelBackgroundColor=none;fontFamily=Verdana;fontSize=20;edgeStyle=elbowEdgeStyle;elbow=vertical;strokeWidth=2;fontStyle=1;entryX=1;entryY=0.211;entryDx=0;entryDy=0;entryPerimeter=0;exitX=0.01;exitY=0.129;exitDx=0;exitDy=0;exitPerimeter=0;" edge="1" parent="1">
          <mxGeometry relative="1" as="geometry">
            <mxPoint x="94" y="3680.64" as="targetPoint" />
            <Array as="points">
              <mxPoint x="245.9000000000001" y="3681.265" />
            </Array>
            <mxPoint x="409" y="3681" as="sourcePoint" />
          </mxGeometry>
        </mxCell>
        <mxCell id="SpGyAxDBSFVW8lquO75B-142" value="createCampaign()" style="html=1;verticalAlign=bottom;endArrow=block;entryX=0;entryY=0;labelBackgroundColor=none;fontFamily=Verdana;fontSize=20;edgeStyle=elbowEdgeStyle;elbow=vertical;strokeWidth=2;fontStyle=1;exitX=1.027;exitY=0.162;exitDx=0;exitDy=0;exitPerimeter=0;" edge="1" parent="1" source="SpGyAxDBSFVW8lquO75B-150">
          <mxGeometry relative="1" as="geometry">
            <mxPoint x="105" y="4317" as="sourcePoint" />
            <mxPoint x="444" y="4317" as="targetPoint" />
          </mxGeometry>
        </mxCell>
        <mxCell id="SpGyAxDBSFVW8lquO75B-143" value=":frontend" style="shape=umlLifeline;perimeter=lifelinePerimeter;whiteSpace=wrap;html=1;container=1;collapsible=0;recursiveResize=0;outlineConnect=0;rounded=1;shadow=0;comic=0;labelBackgroundColor=none;strokeWidth=2;fontFamily=Verdana;fontSize=20;align=center;fontStyle=1" vertex="1" parent="1">
          <mxGeometry x="394" y="4187" width="111" height="217" as="geometry" />
        </mxCell>
        <mxCell id="SpGyAxDBSFVW8lquO75B-144" value="" style="html=1;points=[];perimeter=orthogonalPerimeter;rounded=0;shadow=0;comic=0;labelBackgroundColor=none;strokeWidth=2;fontFamily=Verdana;fontSize=20;align=center;fontStyle=1;whiteSpace=wrap;" vertex="1" parent="SpGyAxDBSFVW8lquO75B-143">
          <mxGeometry x="50" y="118" width="10" height="82" as="geometry" />
        </mxCell>
        <mxCell id="SpGyAxDBSFVW8lquO75B-145" value=":backend" style="shape=umlLifeline;perimeter=lifelinePerimeter;whiteSpace=wrap;html=1;container=1;collapsible=0;recursiveResize=0;outlineConnect=0;rounded=1;shadow=0;comic=0;labelBackgroundColor=none;strokeWidth=2;fontFamily=Verdana;fontSize=20;align=center;fontStyle=1" vertex="1" parent="1">
          <mxGeometry x="690" y="4186" width="112" height="287" as="geometry" />
        </mxCell>
        <mxCell id="SpGyAxDBSFVW8lquO75B-146" value="" style="html=1;points=[];perimeter=orthogonalPerimeter;rounded=0;shadow=0;comic=0;labelBackgroundColor=none;strokeWidth=2;fontFamily=Verdana;fontSize=20;align=center;fontStyle=1;whiteSpace=wrap;" vertex="1" parent="SpGyAxDBSFVW8lquO75B-145">
          <mxGeometry x="50" y="163" width="10" height="110" as="geometry" />
        </mxCell>
        <mxCell id="SpGyAxDBSFVW8lquO75B-147" value="postDetails()" style="html=1;verticalAlign=bottom;endArrow=block;labelBackgroundColor=none;fontFamily=Verdana;fontSize=20;edgeStyle=elbowEdgeStyle;elbow=vertical;strokeWidth=2;fontStyle=1;exitX=0.961;exitY=0.818;exitDx=0;exitDy=0;exitPerimeter=0;" edge="1" parent="SpGyAxDBSFVW8lquO75B-145">
          <mxGeometry x="0.0004" relative="1" as="geometry">
            <mxPoint x="-236.38999999999987" y="170.8699999999999" as="sourcePoint" />
            <mxPoint x="50" y="170" as="targetPoint" />
            <Array as="points" />
            <mxPoint as="offset" />
          </mxGeometry>
        </mxCell>
        <mxCell id="SpGyAxDBSFVW8lquO75B-148" value=":Database" style="shape=umlLifeline;perimeter=lifelinePerimeter;whiteSpace=wrap;html=1;container=1;collapsible=0;recursiveResize=0;outlineConnect=0;rounded=1;shadow=0;comic=0;labelBackgroundColor=none;strokeWidth=2;fontFamily=Verdana;fontSize=20;align=center;fontStyle=1" vertex="1" parent="1">
          <mxGeometry x="914" y="4187" width="125" height="254" as="geometry" />
        </mxCell>
        <mxCell id="SpGyAxDBSFVW8lquO75B-149" value=":representative" style="shape=umlLifeline;perimeter=lifelinePerimeter;whiteSpace=wrap;html=1;container=1;collapsible=0;recursiveResize=0;outlineConnect=0;rounded=1;shadow=0;comic=0;labelBackgroundColor=none;strokeWidth=2;fontFamily=Verdana;fontSize=20;align=center;fontStyle=1" vertex="1" parent="1">
          <mxGeometry x="34" y="4187" width="179" height="294" as="geometry" />
        </mxCell>
        <mxCell id="SpGyAxDBSFVW8lquO75B-150" value="" style="html=1;points=[];perimeter=orthogonalPerimeter;rounded=0;shadow=0;comic=0;labelBackgroundColor=none;strokeWidth=2;fontFamily=Verdana;fontSize=20;align=center;fontStyle=1;whiteSpace=wrap;" vertex="1" parent="SpGyAxDBSFVW8lquO75B-149">
          <mxGeometry x="85" y="100" width="10" height="180" as="geometry" />
        </mxCell>
        <mxCell id="SpGyAxDBSFVW8lquO75B-151" value="" style="html=1;points=[];perimeter=orthogonalPerimeter;rounded=0;shadow=0;comic=0;labelBackgroundColor=none;strokeWidth=2;fontFamily=Verdana;fontSize=20;align=center;fontStyle=1;whiteSpace=wrap;" vertex="1" parent="1">
          <mxGeometry x="973" y="4388" width="10" height="36" as="geometry" />
        </mxCell>
        <mxCell id="SpGyAxDBSFVW8lquO75B-152" value="saveDetails()" style="html=1;verticalAlign=bottom;endArrow=block;labelBackgroundColor=none;fontFamily=Verdana;fontSize=20;edgeStyle=elbowEdgeStyle;elbow=vertical;strokeWidth=2;fontStyle=1;" edge="1" parent="1">
          <mxGeometry x="0.0629" y="4" relative="1" as="geometry">
            <mxPoint x="750" y="4393" as="sourcePoint" />
            <mxPoint x="973" y="4393" as="targetPoint" />
            <Array as="points">
              <mxPoint x="912" y="4393" />
            </Array>
            <mxPoint as="offset" />
          </mxGeometry>
        </mxCell>
        <mxCell id="SpGyAxDBSFVW8lquO75B-153" value="" style="shape=cross;whiteSpace=wrap;html=1;fillColor=#000000;rotation=45;strokeWidth=2;fontSize=20;" vertex="1" parent="1">
          <mxGeometry x="440" y="4396" width="19" height="19" as="geometry" />
        </mxCell>
        <mxCell id="SpGyAxDBSFVW8lquO75B-154" value="" style="shape=cross;whiteSpace=wrap;html=1;fillColor=#000000;rotation=45;strokeWidth=2;fontSize=20;" vertex="1" parent="1">
          <mxGeometry x="114" y="4476" width="19" height="19" as="geometry" />
        </mxCell>
        <mxCell id="SpGyAxDBSFVW8lquO75B-155" value="" style="shape=cross;whiteSpace=wrap;html=1;fillColor=#000000;rotation=45;strokeWidth=2;fontSize=20;" vertex="1" parent="1">
          <mxGeometry x="966.9350288425444" y="4431.935028842545" width="19" height="19" as="geometry" />
        </mxCell>
        <mxCell id="SpGyAxDBSFVW8lquO75B-157" value="" style="shape=cross;whiteSpace=wrap;html=1;fillColor=#000000;rotation=45;strokeWidth=2;fontSize=20;" vertex="1" parent="1">
          <mxGeometry x="736.9350288425444" y="4466.935028842545" width="19" height="19" as="geometry" />
        </mxCell>
        <mxCell id="SpGyAxDBSFVW8lquO75B-158" value="" style="group" vertex="1" connectable="0" parent="1">
          <mxGeometry x="750" y="4397" width="223" height="35" as="geometry" />
        </mxCell>
        <mxCell id="SpGyAxDBSFVW8lquO75B-159" style="edgeStyle=orthogonalEdgeStyle;rounded=0;orthogonalLoop=1;jettySize=auto;html=1;entryX=1;entryY=0.259;entryDx=0;entryDy=0;entryPerimeter=0;strokeWidth=2;dashed=1;" edge="1" parent="SpGyAxDBSFVW8lquO75B-158">
          <mxGeometry relative="1" as="geometry">
            <mxPoint x="223" y="29.40000000000009" as="sourcePoint" />
            <mxPoint y="29.440000000000055" as="targetPoint" />
            <Array as="points">
              <mxPoint x="112" y="29" />
            </Array>
          </mxGeometry>
        </mxCell>
        <mxCell id="SpGyAxDBSFVW8lquO75B-160" value="&lt;b&gt;&lt;font style=&quot;font-size: 19px;&quot;&gt;OK&lt;/font&gt;&lt;/b&gt;" style="text;html=1;align=center;verticalAlign=middle;resizable=0;points=[];autosize=1;strokeColor=none;fillColor=none;" vertex="1" parent="SpGyAxDBSFVW8lquO75B-158">
          <mxGeometry x="78" width="47" height="35" as="geometry" />
        </mxCell>
        <mxCell id="SpGyAxDBSFVW8lquO75B-161" value="OK" style="html=1;verticalAlign=bottom;endArrow=open;dashed=1;endSize=8;labelBackgroundColor=none;fontFamily=Verdana;fontSize=20;edgeStyle=elbowEdgeStyle;elbow=vertical;strokeWidth=2;fontStyle=1;" edge="1" parent="1">
          <mxGeometry relative="1" as="geometry">
            <mxPoint x="130" y="4448" as="targetPoint" />
            <Array as="points">
              <mxPoint x="412" y="4448" />
            </Array>
            <mxPoint x="740" y="4448" as="sourcePoint" />
          </mxGeometry>
        </mxCell>
        <mxCell id="SpGyAxDBSFVW8lquO75B-167" value="&lt;font&gt;&lt;b&gt;Post Campaign&lt;/b&gt;&lt;/font&gt;" style="whiteSpace=wrap;html=1;strokeWidth=2;fontSize=20;" vertex="1" parent="1">
          <mxGeometry x="356" y="4071" width="283" height="60" as="geometry" />
        </mxCell>
        <mxCell id="SpGyAxDBSFVW8lquO75B-168" value="viewNotification()" style="html=1;verticalAlign=bottom;endArrow=block;entryX=0;entryY=0;labelBackgroundColor=none;fontFamily=Verdana;fontSize=20;edgeStyle=elbowEdgeStyle;elbow=vertical;strokeWidth=2;fontStyle=1" edge="1" parent="1">
          <mxGeometry relative="1" as="geometry">
            <mxPoint x="90" y="4860" as="sourcePoint" />
            <mxPoint x="429" y="4860" as="targetPoint" />
          </mxGeometry>
        </mxCell>
        <mxCell id="SpGyAxDBSFVW8lquO75B-169" value=":frontend" style="shape=umlLifeline;perimeter=lifelinePerimeter;whiteSpace=wrap;html=1;container=1;collapsible=0;recursiveResize=0;outlineConnect=0;rounded=1;shadow=0;comic=0;labelBackgroundColor=none;strokeWidth=2;fontFamily=Verdana;fontSize=20;align=center;fontStyle=1" vertex="1" parent="1">
          <mxGeometry x="379" y="4730" width="111" height="326" as="geometry" />
        </mxCell>
        <mxCell id="SpGyAxDBSFVW8lquO75B-170" value="" style="html=1;points=[];perimeter=orthogonalPerimeter;rounded=0;shadow=0;comic=0;labelBackgroundColor=none;strokeWidth=2;fontFamily=Verdana;fontSize=20;align=center;fontStyle=1;whiteSpace=wrap;" vertex="1" parent="SpGyAxDBSFVW8lquO75B-169">
          <mxGeometry x="50" y="100" width="10" height="215" as="geometry" />
        </mxCell>
        <mxCell id="SpGyAxDBSFVW8lquO75B-171" value=":backend" style="shape=umlLifeline;perimeter=lifelinePerimeter;whiteSpace=wrap;html=1;container=1;collapsible=0;recursiveResize=0;outlineConnect=0;rounded=1;shadow=0;comic=0;labelBackgroundColor=none;strokeWidth=2;fontFamily=Verdana;fontSize=20;align=center;fontStyle=1" vertex="1" parent="1">
          <mxGeometry x="675" y="4729" width="112" height="287" as="geometry" />
        </mxCell>
        <mxCell id="SpGyAxDBSFVW8lquO75B-172" value="" style="html=1;points=[];perimeter=orthogonalPerimeter;rounded=0;shadow=0;comic=0;labelBackgroundColor=none;strokeWidth=2;fontFamily=Verdana;fontSize=20;align=center;fontStyle=1;whiteSpace=wrap;" vertex="1" parent="SpGyAxDBSFVW8lquO75B-171">
          <mxGeometry x="50" y="136" width="10" height="140" as="geometry" />
        </mxCell>
        <mxCell id="SpGyAxDBSFVW8lquO75B-173" value="getNotification()" style="html=1;verticalAlign=bottom;endArrow=block;labelBackgroundColor=none;fontFamily=Verdana;fontSize=20;edgeStyle=elbowEdgeStyle;elbow=vertical;strokeWidth=2;fontStyle=1;exitX=0.961;exitY=0.818;exitDx=0;exitDy=0;exitPerimeter=0;" edge="1" parent="SpGyAxDBSFVW8lquO75B-171">
          <mxGeometry x="0.0004" relative="1" as="geometry">
            <mxPoint x="-236.3900000000001" y="161.8700000000008" as="sourcePoint" />
            <mxPoint x="50" y="161" as="targetPoint" />
            <Array as="points" />
            <mxPoint as="offset" />
          </mxGeometry>
        </mxCell>
        <mxCell id="SpGyAxDBSFVW8lquO75B-174" value=":Database" style="shape=umlLifeline;perimeter=lifelinePerimeter;whiteSpace=wrap;html=1;container=1;collapsible=0;recursiveResize=0;outlineConnect=0;rounded=1;shadow=0;comic=0;labelBackgroundColor=none;strokeWidth=2;fontFamily=Verdana;fontSize=20;align=center;fontStyle=1" vertex="1" parent="1">
          <mxGeometry x="899" y="4730" width="125" height="235" as="geometry" />
        </mxCell>
        <mxCell id="SpGyAxDBSFVW8lquO75B-175" value=":constituent" style="shape=umlLifeline;perimeter=lifelinePerimeter;whiteSpace=wrap;html=1;container=1;collapsible=0;recursiveResize=0;outlineConnect=0;rounded=1;shadow=0;comic=0;labelBackgroundColor=none;strokeWidth=2;fontFamily=Verdana;fontSize=20;align=center;fontStyle=1" vertex="1" parent="1">
          <mxGeometry x="19" y="4730" width="141" height="300" as="geometry" />
        </mxCell>
        <mxCell id="SpGyAxDBSFVW8lquO75B-176" value="" style="html=1;points=[];perimeter=orthogonalPerimeter;rounded=0;shadow=0;comic=0;labelBackgroundColor=none;strokeWidth=2;fontFamily=Verdana;fontSize=20;align=center;fontStyle=1;whiteSpace=wrap;" vertex="1" parent="SpGyAxDBSFVW8lquO75B-175">
          <mxGeometry x="66" y="100" width="10" height="193" as="geometry" />
        </mxCell>
        <mxCell id="SpGyAxDBSFVW8lquO75B-177" value="" style="html=1;points=[];perimeter=orthogonalPerimeter;rounded=0;shadow=0;comic=0;labelBackgroundColor=none;strokeWidth=2;fontFamily=Verdana;fontSize=20;align=center;fontStyle=1;whiteSpace=wrap;" vertex="1" parent="1">
          <mxGeometry x="957" y="4915" width="10" height="39" as="geometry" />
        </mxCell>
        <mxCell id="SpGyAxDBSFVW8lquO75B-178" value="getData()" style="html=1;verticalAlign=bottom;endArrow=block;labelBackgroundColor=none;fontFamily=Verdana;fontSize=20;edgeStyle=elbowEdgeStyle;elbow=vertical;strokeWidth=2;fontStyle=1;" edge="1" parent="1">
          <mxGeometry x="-0.0314" y="3" relative="1" as="geometry">
            <mxPoint x="735" y="4922" as="sourcePoint" />
            <mxPoint x="956" y="4922" as="targetPoint" />
            <Array as="points">
              <mxPoint x="897" y="4922" />
            </Array>
            <mxPoint as="offset" />
          </mxGeometry>
        </mxCell>
        <mxCell id="SpGyAxDBSFVW8lquO75B-179" value="" style="shape=cross;whiteSpace=wrap;html=1;fillColor=#000000;rotation=45;strokeWidth=2;fontSize=20;" vertex="1" parent="1">
          <mxGeometry x="425" y="5048" width="19" height="19" as="geometry" />
        </mxCell>
        <mxCell id="SpGyAxDBSFVW8lquO75B-180" value="" style="shape=cross;whiteSpace=wrap;html=1;fillColor=#000000;rotation=45;strokeWidth=2;fontSize=20;" vertex="1" parent="1">
          <mxGeometry x="80" y="5027" width="19" height="19" as="geometry" />
        </mxCell>
        <mxCell id="SpGyAxDBSFVW8lquO75B-181" value="" style="shape=cross;whiteSpace=wrap;html=1;fillColor=#000000;rotation=45;strokeWidth=2;fontSize=20;" vertex="1" parent="1">
          <mxGeometry x="951.9350288425444" y="4964.935028842545" width="19" height="19" as="geometry" />
        </mxCell>
        <mxCell id="SpGyAxDBSFVW8lquO75B-182" value="displayNotification()" style="html=1;verticalAlign=bottom;endArrow=open;dashed=1;endSize=8;labelBackgroundColor=none;fontFamily=Verdana;fontSize=20;edgeStyle=elbowEdgeStyle;elbow=vertical;strokeWidth=2;fontStyle=1;entryX=0.953;entryY=0.127;entryDx=0;entryDy=0;entryPerimeter=0;exitX=0.01;exitY=0.129;exitDx=0;exitDy=0;exitPerimeter=0;" edge="1" parent="1">
          <mxGeometry relative="1" as="geometry">
            <mxPoint x="94.52999999999997" y="5011.956" as="targetPoint" />
            <Array as="points">
              <mxPoint x="266" y="5011" />
            </Array>
            <mxPoint x="429.0999999999999" y="5010.735000000001" as="sourcePoint" />
          </mxGeometry>
        </mxCell>
        <mxCell id="SpGyAxDBSFVW8lquO75B-184" value="" style="shape=cross;whiteSpace=wrap;html=1;fillColor=#000000;rotation=45;strokeWidth=2;fontSize=20;" vertex="1" parent="1">
          <mxGeometry x="721.9350288425444" y="5009.935028842545" width="19" height="19" as="geometry" />
        </mxCell>
        <mxCell id="SpGyAxDBSFVW8lquO75B-185" value="" style="group" vertex="1" connectable="0" parent="1">
          <mxGeometry x="735" y="4923" width="223" height="35" as="geometry" />
        </mxCell>
        <mxCell id="SpGyAxDBSFVW8lquO75B-186" style="edgeStyle=orthogonalEdgeStyle;rounded=0;orthogonalLoop=1;jettySize=auto;html=1;entryX=1;entryY=0.259;entryDx=0;entryDy=0;entryPerimeter=0;strokeWidth=2;dashed=1;" edge="1" parent="SpGyAxDBSFVW8lquO75B-185">
          <mxGeometry relative="1" as="geometry">
            <mxPoint x="223" y="29.40000000000009" as="sourcePoint" />
            <mxPoint y="29.440000000000055" as="targetPoint" />
            <Array as="points">
              <mxPoint x="112" y="29" />
            </Array>
          </mxGeometry>
        </mxCell>
        <mxCell id="SpGyAxDBSFVW8lquO75B-187" value="&lt;b&gt;&lt;font style=&quot;font-size: 19px;&quot;&gt;Notification Data&lt;/font&gt;&lt;/b&gt;" style="text;html=1;align=center;verticalAlign=middle;resizable=0;points=[];autosize=1;strokeColor=none;fillColor=none;" vertex="1" parent="SpGyAxDBSFVW8lquO75B-185">
          <mxGeometry x="18" width="169" height="35" as="geometry" />
        </mxCell>
        <mxCell id="SpGyAxDBSFVW8lquO75B-190" value="&lt;font&gt;&lt;b&gt;View Notification&lt;/b&gt;&lt;/font&gt;" style="whiteSpace=wrap;html=1;strokeWidth=2;fontSize=20;" vertex="1" parent="1">
          <mxGeometry x="384" y="4626" width="283" height="60" as="geometry" />
        </mxCell>
        <mxCell id="SpGyAxDBSFVW8lquO75B-191" value="" style="group" vertex="1" connectable="0" parent="1">
          <mxGeometry x="440" y="4953" width="285" height="35" as="geometry" />
        </mxCell>
        <mxCell id="SpGyAxDBSFVW8lquO75B-192" style="edgeStyle=orthogonalEdgeStyle;rounded=0;orthogonalLoop=1;jettySize=auto;html=1;entryX=1;entryY=0.259;entryDx=0;entryDy=0;entryPerimeter=0;strokeWidth=2;dashed=1;" edge="1" parent="SpGyAxDBSFVW8lquO75B-191">
          <mxGeometry relative="1" as="geometry">
            <mxPoint x="285" y="29.40000000000009" as="sourcePoint" />
            <mxPoint y="29.440000000000055" as="targetPoint" />
            <Array as="points">
              <mxPoint x="143.13901345291478" y="29" />
            </Array>
          </mxGeometry>
        </mxCell>
        <mxCell id="SpGyAxDBSFVW8lquO75B-193" value="&lt;b&gt;&lt;font style=&quot;font-size: 19px;&quot;&gt;Notification List&lt;/font&gt;&lt;/b&gt;" style="text;html=1;align=center;verticalAlign=middle;resizable=0;points=[];autosize=1;strokeColor=none;fillColor=none;" vertex="1" parent="SpGyAxDBSFVW8lquO75B-191">
          <mxGeometry x="67.00448430493273" width="162" height="35" as="geometry" />
        </mxCell>
        <mxCell id="SpGyAxDBSFVW8lquO75B-194" value="viewStats()" style="html=1;verticalAlign=bottom;endArrow=block;entryX=0;entryY=0;labelBackgroundColor=none;fontFamily=Verdana;fontSize=20;edgeStyle=elbowEdgeStyle;elbow=vertical;strokeWidth=2;fontStyle=1" edge="1" parent="1">
          <mxGeometry relative="1" as="geometry">
            <mxPoint x="90" y="5380" as="sourcePoint" />
            <mxPoint x="429" y="5380" as="targetPoint" />
          </mxGeometry>
        </mxCell>
        <mxCell id="SpGyAxDBSFVW8lquO75B-195" value=":frontend" style="shape=umlLifeline;perimeter=lifelinePerimeter;whiteSpace=wrap;html=1;container=1;collapsible=0;recursiveResize=0;outlineConnect=0;rounded=1;shadow=0;comic=0;labelBackgroundColor=none;strokeWidth=2;fontFamily=Verdana;fontSize=20;align=center;fontStyle=1" vertex="1" parent="1">
          <mxGeometry x="379" y="5250" width="111" height="341" as="geometry" />
        </mxCell>
        <mxCell id="SpGyAxDBSFVW8lquO75B-196" value="" style="html=1;points=[];perimeter=orthogonalPerimeter;rounded=0;shadow=0;comic=0;labelBackgroundColor=none;strokeWidth=2;fontFamily=Verdana;fontSize=20;align=center;fontStyle=1;whiteSpace=wrap;" vertex="1" parent="SpGyAxDBSFVW8lquO75B-195">
          <mxGeometry x="50" y="100" width="10" height="227" as="geometry" />
        </mxCell>
        <mxCell id="SpGyAxDBSFVW8lquO75B-197" value=":backend" style="shape=umlLifeline;perimeter=lifelinePerimeter;whiteSpace=wrap;html=1;container=1;collapsible=0;recursiveResize=0;outlineConnect=0;rounded=1;shadow=0;comic=0;labelBackgroundColor=none;strokeWidth=2;fontFamily=Verdana;fontSize=20;align=center;fontStyle=1" vertex="1" parent="1">
          <mxGeometry x="675" y="5249" width="112" height="331" as="geometry" />
        </mxCell>
        <mxCell id="SpGyAxDBSFVW8lquO75B-198" value="" style="html=1;points=[];perimeter=orthogonalPerimeter;rounded=0;shadow=0;comic=0;labelBackgroundColor=none;strokeWidth=2;fontFamily=Verdana;fontSize=20;align=center;fontStyle=1;whiteSpace=wrap;" vertex="1" parent="SpGyAxDBSFVW8lquO75B-197">
          <mxGeometry x="50" y="136" width="10" height="172" as="geometry" />
        </mxCell>
        <mxCell id="SpGyAxDBSFVW8lquO75B-199" value="getStats()" style="html=1;verticalAlign=bottom;endArrow=block;labelBackgroundColor=none;fontFamily=Verdana;fontSize=20;edgeStyle=elbowEdgeStyle;elbow=vertical;strokeWidth=2;fontStyle=1;exitX=0.961;exitY=0.818;exitDx=0;exitDy=0;exitPerimeter=0;" edge="1" parent="SpGyAxDBSFVW8lquO75B-197">
          <mxGeometry x="0.0004" relative="1" as="geometry">
            <mxPoint x="-236.3900000000001" y="161.8700000000008" as="sourcePoint" />
            <mxPoint x="50" y="161" as="targetPoint" />
            <Array as="points" />
            <mxPoint as="offset" />
          </mxGeometry>
        </mxCell>
        <mxCell id="SpGyAxDBSFVW8lquO75B-200" value=":Database" style="shape=umlLifeline;perimeter=lifelinePerimeter;whiteSpace=wrap;html=1;container=1;collapsible=0;recursiveResize=0;outlineConnect=0;rounded=1;shadow=0;comic=0;labelBackgroundColor=none;strokeWidth=2;fontFamily=Verdana;fontSize=20;align=center;fontStyle=1" vertex="1" parent="1">
          <mxGeometry x="899" y="5250" width="125" height="235" as="geometry" />
        </mxCell>
        <mxCell id="SpGyAxDBSFVW8lquO75B-201" value=":constituent" style="shape=umlLifeline;perimeter=lifelinePerimeter;whiteSpace=wrap;html=1;container=1;collapsible=0;recursiveResize=0;outlineConnect=0;rounded=1;shadow=0;comic=0;labelBackgroundColor=none;strokeWidth=2;fontFamily=Verdana;fontSize=20;align=center;fontStyle=1" vertex="1" parent="1">
          <mxGeometry x="19" y="5250" width="141" height="343" as="geometry" />
        </mxCell>
        <mxCell id="SpGyAxDBSFVW8lquO75B-202" value="" style="html=1;points=[];perimeter=orthogonalPerimeter;rounded=0;shadow=0;comic=0;labelBackgroundColor=none;strokeWidth=2;fontFamily=Verdana;fontSize=20;align=center;fontStyle=1;whiteSpace=wrap;" vertex="1" parent="SpGyAxDBSFVW8lquO75B-201">
          <mxGeometry x="66" y="100" width="10" height="231" as="geometry" />
        </mxCell>
        <mxCell id="SpGyAxDBSFVW8lquO75B-203" value="" style="html=1;points=[];perimeter=orthogonalPerimeter;rounded=0;shadow=0;comic=0;labelBackgroundColor=none;strokeWidth=2;fontFamily=Verdana;fontSize=20;align=center;fontStyle=1;whiteSpace=wrap;" vertex="1" parent="1">
          <mxGeometry x="957" y="5435" width="10" height="39" as="geometry" />
        </mxCell>
        <mxCell id="SpGyAxDBSFVW8lquO75B-204" value="getData()" style="html=1;verticalAlign=bottom;endArrow=block;labelBackgroundColor=none;fontFamily=Verdana;fontSize=20;edgeStyle=elbowEdgeStyle;elbow=vertical;strokeWidth=2;fontStyle=1;" edge="1" parent="1">
          <mxGeometry x="-0.0314" y="3" relative="1" as="geometry">
            <mxPoint x="735" y="5442" as="sourcePoint" />
            <mxPoint x="956" y="5442" as="targetPoint" />
            <Array as="points">
              <mxPoint x="897" y="5442" />
            </Array>
            <mxPoint as="offset" />
          </mxGeometry>
        </mxCell>
        <mxCell id="SpGyAxDBSFVW8lquO75B-205" value="" style="shape=cross;whiteSpace=wrap;html=1;fillColor=#000000;rotation=45;strokeWidth=2;fontSize=20;" vertex="1" parent="1">
          <mxGeometry x="425" y="5587" width="19" height="19" as="geometry" />
        </mxCell>
        <mxCell id="SpGyAxDBSFVW8lquO75B-206" value="" style="shape=cross;whiteSpace=wrap;html=1;fillColor=#000000;rotation=45;strokeWidth=2;fontSize=20;" vertex="1" parent="1">
          <mxGeometry x="80" y="5587" width="19" height="19" as="geometry" />
        </mxCell>
        <mxCell id="SpGyAxDBSFVW8lquO75B-207" value="" style="shape=cross;whiteSpace=wrap;html=1;fillColor=#000000;rotation=45;strokeWidth=2;fontSize=20;" vertex="1" parent="1">
          <mxGeometry x="951.9350288425444" y="5484.935028842545" width="19" height="19" as="geometry" />
        </mxCell>
        <mxCell id="SpGyAxDBSFVW8lquO75B-208" value="displayStats()" style="html=1;verticalAlign=bottom;endArrow=open;dashed=1;endSize=8;labelBackgroundColor=none;fontFamily=Verdana;fontSize=20;edgeStyle=elbowEdgeStyle;elbow=vertical;strokeWidth=2;fontStyle=1;entryX=0.953;entryY=0.127;entryDx=0;entryDy=0;entryPerimeter=0;exitX=0.01;exitY=0.129;exitDx=0;exitDy=0;exitPerimeter=0;" edge="1" parent="1">
          <mxGeometry relative="1" as="geometry">
            <mxPoint x="94.52999999999997" y="5573.956" as="targetPoint" />
            <Array as="points">
              <mxPoint x="266" y="5573" />
            </Array>
            <mxPoint x="429.0999999999999" y="5572.735000000001" as="sourcePoint" />
          </mxGeometry>
        </mxCell>
        <mxCell id="SpGyAxDBSFVW8lquO75B-209" value="" style="shape=cross;whiteSpace=wrap;html=1;fillColor=#000000;rotation=45;strokeWidth=2;fontSize=20;" vertex="1" parent="1">
          <mxGeometry x="721.9350288425444" y="5589.935028842545" width="19" height="19" as="geometry" />
        </mxCell>
        <mxCell id="SpGyAxDBSFVW8lquO75B-210" value="" style="group" vertex="1" connectable="0" parent="1">
          <mxGeometry x="735" y="5443" width="223" height="35" as="geometry" />
        </mxCell>
        <mxCell id="SpGyAxDBSFVW8lquO75B-211" style="edgeStyle=orthogonalEdgeStyle;rounded=0;orthogonalLoop=1;jettySize=auto;html=1;entryX=1;entryY=0.259;entryDx=0;entryDy=0;entryPerimeter=0;strokeWidth=2;dashed=1;" edge="1" parent="SpGyAxDBSFVW8lquO75B-210">
          <mxGeometry relative="1" as="geometry">
            <mxPoint x="223" y="29.40000000000009" as="sourcePoint" />
            <mxPoint y="29.440000000000055" as="targetPoint" />
            <Array as="points">
              <mxPoint x="112" y="29" />
            </Array>
          </mxGeometry>
        </mxCell>
        <mxCell id="SpGyAxDBSFVW8lquO75B-212" value="&lt;b&gt;&lt;font style=&quot;font-size: 19px;&quot;&gt;Stats Data&lt;/font&gt;&lt;/b&gt;" style="text;html=1;align=center;verticalAlign=middle;resizable=0;points=[];autosize=1;strokeColor=none;fillColor=none;" vertex="1" parent="SpGyAxDBSFVW8lquO75B-210">
          <mxGeometry x="47" width="111" height="35" as="geometry" />
        </mxCell>
        <mxCell id="SpGyAxDBSFVW8lquO75B-213" value="&lt;font&gt;&lt;b&gt;View Stats&lt;/b&gt;&lt;/font&gt;" style="whiteSpace=wrap;html=1;strokeWidth=2;fontSize=20;" vertex="1" parent="1">
          <mxGeometry x="384" y="5146" width="283" height="60" as="geometry" />
        </mxCell>
        <mxCell id="SpGyAxDBSFVW8lquO75B-214" value="" style="group" vertex="1" connectable="0" parent="1">
          <mxGeometry x="440" y="5523" width="285" height="35" as="geometry" />
        </mxCell>
        <mxCell id="SpGyAxDBSFVW8lquO75B-215" style="edgeStyle=orthogonalEdgeStyle;rounded=0;orthogonalLoop=1;jettySize=auto;html=1;entryX=1;entryY=0.259;entryDx=0;entryDy=0;entryPerimeter=0;strokeWidth=2;dashed=1;" edge="1" parent="SpGyAxDBSFVW8lquO75B-214">
          <mxGeometry relative="1" as="geometry">
            <mxPoint x="285" y="29.40000000000009" as="sourcePoint" />
            <mxPoint y="29.440000000000055" as="targetPoint" />
            <Array as="points">
              <mxPoint x="143.13901345291478" y="29" />
            </Array>
          </mxGeometry>
        </mxCell>
        <mxCell id="SpGyAxDBSFVW8lquO75B-216" value="&lt;b&gt;&lt;font style=&quot;font-size: 19px;&quot;&gt;Stats&lt;/font&gt;&lt;/b&gt;" style="text;html=1;align=center;verticalAlign=middle;resizable=0;points=[];autosize=1;strokeColor=none;fillColor=none;" vertex="1" parent="SpGyAxDBSFVW8lquO75B-214">
          <mxGeometry x="116.00448430493273" width="64" height="35" as="geometry" />
        </mxCell>
        <mxCell id="SpGyAxDBSFVW8lquO75B-217" value="computeStats()" style="html=1;verticalAlign=bottom;endArrow=block;labelBackgroundColor=none;fontFamily=Verdana;fontSize=20;elbow=vertical;edgeStyle=orthogonalEdgeStyle;curved=1;exitX=1;exitY=0.14;exitPerimeter=0;strokeWidth=2;fontStyle=1;exitDx=0;exitDy=0;entryX=1.099;entryY=0.303;entryDx=0;entryDy=0;entryPerimeter=0;" edge="1" parent="1">
          <mxGeometry x="-0.195" y="41" relative="1" as="geometry">
            <mxPoint x="736" y="5499" as="sourcePoint" />
            <mxPoint x="736.99" y="5536.49" as="targetPoint" />
            <Array as="points">
              <mxPoint x="796" y="5498.8" />
              <mxPoint x="796" y="5536.8" />
            </Array>
            <mxPoint as="offset" />
          </mxGeometry>
        </mxCell>
        <mxCell id="SpGyAxDBSFVW8lquO75B-219" value="createSurveySummary()" style="html=1;verticalAlign=bottom;endArrow=block;entryX=0;entryY=0;labelBackgroundColor=none;fontFamily=Verdana;fontSize=20;edgeStyle=elbowEdgeStyle;elbow=vertical;strokeWidth=2;fontStyle=1;" edge="1" parent="1">
          <mxGeometry x="-0.0537" relative="1" as="geometry">
            <mxPoint x="140" y="6069.929824561404" as="sourcePoint" />
            <mxPoint x="455" y="6070" as="targetPoint" />
            <mxPoint as="offset" />
          </mxGeometry>
        </mxCell>
        <mxCell id="SpGyAxDBSFVW8lquO75B-220" value=":frontend" style="shape=umlLifeline;perimeter=lifelinePerimeter;whiteSpace=wrap;html=1;container=1;collapsible=0;recursiveResize=0;outlineConnect=0;rounded=1;shadow=0;comic=0;labelBackgroundColor=none;strokeWidth=2;fontFamily=Verdana;fontSize=20;align=center;fontStyle=1" vertex="1" parent="1">
          <mxGeometry x="405" y="5932" width="111" height="359" as="geometry" />
        </mxCell>
        <mxCell id="SpGyAxDBSFVW8lquO75B-221" value="" style="html=1;points=[];perimeter=orthogonalPerimeter;rounded=0;shadow=0;comic=0;labelBackgroundColor=none;strokeWidth=2;fontFamily=Verdana;fontSize=20;align=center;fontStyle=1;whiteSpace=wrap;" vertex="1" parent="SpGyAxDBSFVW8lquO75B-220">
          <mxGeometry x="50" y="118" width="10" height="231" as="geometry" />
        </mxCell>
        <mxCell id="SpGyAxDBSFVW8lquO75B-222" value=":backend" style="shape=umlLifeline;perimeter=lifelinePerimeter;whiteSpace=wrap;html=1;container=1;collapsible=0;recursiveResize=0;outlineConnect=0;rounded=1;shadow=0;comic=0;labelBackgroundColor=none;strokeWidth=2;fontFamily=Verdana;fontSize=20;align=center;fontStyle=1" vertex="1" parent="1">
          <mxGeometry x="701" y="5931" width="112" height="361" as="geometry" />
        </mxCell>
        <mxCell id="SpGyAxDBSFVW8lquO75B-223" value="" style="html=1;points=[];perimeter=orthogonalPerimeter;rounded=0;shadow=0;comic=0;labelBackgroundColor=none;strokeWidth=2;fontFamily=Verdana;fontSize=20;align=center;fontStyle=1;whiteSpace=wrap;" vertex="1" parent="SpGyAxDBSFVW8lquO75B-222">
          <mxGeometry x="50" y="163" width="10" height="172" as="geometry" />
        </mxCell>
        <mxCell id="SpGyAxDBSFVW8lquO75B-224" value="getResponses()" style="html=1;verticalAlign=bottom;endArrow=block;labelBackgroundColor=none;fontFamily=Verdana;fontSize=20;edgeStyle=elbowEdgeStyle;elbow=vertical;strokeWidth=2;fontStyle=1;exitX=0.961;exitY=0.818;exitDx=0;exitDy=0;exitPerimeter=0;" edge="1" parent="SpGyAxDBSFVW8lquO75B-222">
          <mxGeometry x="0.0004" relative="1" as="geometry">
            <mxPoint x="-236.38999999999987" y="170.8699999999999" as="sourcePoint" />
            <mxPoint x="50" y="170" as="targetPoint" />
            <Array as="points" />
            <mxPoint as="offset" />
          </mxGeometry>
        </mxCell>
        <mxCell id="SpGyAxDBSFVW8lquO75B-225" value=":Database" style="shape=umlLifeline;perimeter=lifelinePerimeter;whiteSpace=wrap;html=1;container=1;collapsible=0;recursiveResize=0;outlineConnect=0;rounded=1;shadow=0;comic=0;labelBackgroundColor=none;strokeWidth=2;fontFamily=Verdana;fontSize=20;align=center;fontStyle=1" vertex="1" parent="1">
          <mxGeometry x="955" y="5932" width="125" height="254" as="geometry" />
        </mxCell>
        <mxCell id="SpGyAxDBSFVW8lquO75B-226" value=":representative" style="shape=umlLifeline;perimeter=lifelinePerimeter;whiteSpace=wrap;html=1;container=1;collapsible=0;recursiveResize=0;outlineConnect=0;rounded=1;shadow=0;comic=0;labelBackgroundColor=none;strokeWidth=2;fontFamily=Verdana;fontSize=20;align=center;fontStyle=1" vertex="1" parent="1">
          <mxGeometry x="45" y="5932" width="179" height="380" as="geometry" />
        </mxCell>
        <mxCell id="SpGyAxDBSFVW8lquO75B-227" value="" style="html=1;points=[];perimeter=orthogonalPerimeter;rounded=0;shadow=0;comic=0;labelBackgroundColor=none;strokeWidth=2;fontFamily=Verdana;fontSize=20;align=center;fontStyle=1;whiteSpace=wrap;" vertex="1" parent="SpGyAxDBSFVW8lquO75B-226">
          <mxGeometry x="85" y="100" width="10" height="264" as="geometry" />
        </mxCell>
        <mxCell id="SpGyAxDBSFVW8lquO75B-228" value="" style="html=1;points=[];perimeter=orthogonalPerimeter;rounded=0;shadow=0;comic=0;labelBackgroundColor=none;strokeWidth=2;fontFamily=Verdana;fontSize=20;align=center;fontStyle=1;whiteSpace=wrap;" vertex="1" parent="1">
          <mxGeometry x="1013" y="6133" width="10" height="45" as="geometry" />
        </mxCell>
        <mxCell id="SpGyAxDBSFVW8lquO75B-229" value="queryResponses()" style="html=1;verticalAlign=bottom;endArrow=block;labelBackgroundColor=none;fontFamily=Verdana;fontSize=20;edgeStyle=elbowEdgeStyle;elbow=vertical;strokeWidth=2;fontStyle=1;" edge="1" parent="1">
          <mxGeometry x="0.0629" y="4" relative="1" as="geometry">
            <mxPoint x="761" y="6138" as="sourcePoint" />
            <mxPoint x="1012" y="6138" as="targetPoint" />
            <Array as="points">
              <mxPoint x="923" y="6138" />
            </Array>
            <mxPoint as="offset" />
          </mxGeometry>
        </mxCell>
        <mxCell id="SpGyAxDBSFVW8lquO75B-230" value="" style="shape=cross;whiteSpace=wrap;html=1;fillColor=#000000;rotation=45;strokeWidth=2;fontSize=20;" vertex="1" parent="1">
          <mxGeometry x="451" y="6291" width="19" height="19" as="geometry" />
        </mxCell>
        <mxCell id="SpGyAxDBSFVW8lquO75B-231" value="" style="shape=cross;whiteSpace=wrap;html=1;fillColor=#000000;rotation=45;strokeWidth=2;fontSize=20;" vertex="1" parent="1">
          <mxGeometry x="125" y="6311" width="19" height="19" as="geometry" />
        </mxCell>
        <mxCell id="SpGyAxDBSFVW8lquO75B-232" value="" style="shape=cross;whiteSpace=wrap;html=1;fillColor=#000000;rotation=45;strokeWidth=2;fontSize=20;" vertex="1" parent="1">
          <mxGeometry x="1007.9350288425444" y="6179.935028842545" width="19" height="19" as="geometry" />
        </mxCell>
        <mxCell id="SpGyAxDBSFVW8lquO75B-233" value="" style="shape=cross;whiteSpace=wrap;html=1;fillColor=#000000;rotation=45;strokeWidth=2;fontSize=20;" vertex="1" parent="1">
          <mxGeometry x="747.9350288425444" y="6283.935028842545" width="19" height="19" as="geometry" />
        </mxCell>
        <mxCell id="SpGyAxDBSFVW8lquO75B-234" value="" style="group" vertex="1" connectable="0" parent="1">
          <mxGeometry x="761" y="6141" width="251" height="35" as="geometry" />
        </mxCell>
        <mxCell id="SpGyAxDBSFVW8lquO75B-235" style="edgeStyle=orthogonalEdgeStyle;rounded=0;orthogonalLoop=1;jettySize=auto;html=1;entryX=1;entryY=0.259;entryDx=0;entryDy=0;entryPerimeter=0;strokeWidth=2;dashed=1;" edge="1" parent="SpGyAxDBSFVW8lquO75B-234">
          <mxGeometry relative="1" as="geometry">
            <mxPoint x="250.99999999999997" y="29.40000000000009" as="sourcePoint" />
            <mxPoint y="29.440000000000055" as="targetPoint" />
            <Array as="points">
              <mxPoint x="126.0627802690583" y="29" />
            </Array>
          </mxGeometry>
        </mxCell>
        <mxCell id="SpGyAxDBSFVW8lquO75B-236" value="&lt;b&gt;&lt;font style=&quot;font-size: 19px;&quot;&gt;Survey Responses&lt;/font&gt;&lt;/b&gt;" style="text;html=1;align=center;verticalAlign=middle;resizable=0;points=[];autosize=1;strokeColor=none;fillColor=none;" vertex="1" parent="SpGyAxDBSFVW8lquO75B-234">
          <mxGeometry x="22.511210762331835" width="188" height="35" as="geometry" />
        </mxCell>
        <mxCell id="SpGyAxDBSFVW8lquO75B-238" value="&lt;font&gt;&lt;b&gt;Analyze Survey&lt;/b&gt;&lt;/font&gt;" style="whiteSpace=wrap;html=1;strokeWidth=2;fontSize=20;" vertex="1" parent="1">
          <mxGeometry x="367" y="5816" width="283" height="60" as="geometry" />
        </mxCell>
        <mxCell id="SpGyAxDBSFVW8lquO75B-239" value="analyzeResponses()" style="html=1;verticalAlign=bottom;endArrow=block;labelBackgroundColor=none;fontFamily=Verdana;fontSize=20;elbow=vertical;edgeStyle=orthogonalEdgeStyle;curved=1;exitX=1;exitY=0.14;exitPerimeter=0;strokeWidth=2;fontStyle=1;exitDx=0;exitDy=0;entryX=1.099;entryY=0.303;entryDx=0;entryDy=0;entryPerimeter=0;" edge="1" parent="1">
          <mxGeometry x="-0.1822" y="55" relative="1" as="geometry">
            <mxPoint x="762" y="6199" as="sourcePoint" />
            <mxPoint x="762.99" y="6236.49" as="targetPoint" />
            <Array as="points">
              <mxPoint x="822" y="6198.8" />
              <mxPoint x="822" y="6236.8" />
            </Array>
            <mxPoint as="offset" />
          </mxGeometry>
        </mxCell>
        <mxCell id="SpGyAxDBSFVW8lquO75B-240" value="" style="group" vertex="1" connectable="0" parent="1">
          <mxGeometry x="465" y="6228" width="285" height="35" as="geometry" />
        </mxCell>
        <mxCell id="SpGyAxDBSFVW8lquO75B-241" style="edgeStyle=orthogonalEdgeStyle;rounded=0;orthogonalLoop=1;jettySize=auto;html=1;entryX=1;entryY=0.259;entryDx=0;entryDy=0;entryPerimeter=0;strokeWidth=2;dashed=1;" edge="1" parent="SpGyAxDBSFVW8lquO75B-240">
          <mxGeometry relative="1" as="geometry">
            <mxPoint x="285" y="29.40000000000009" as="sourcePoint" />
            <mxPoint y="29.440000000000055" as="targetPoint" />
            <Array as="points">
              <mxPoint x="143.13901345291478" y="29" />
            </Array>
          </mxGeometry>
        </mxCell>
        <mxCell id="SpGyAxDBSFVW8lquO75B-242" value="&lt;b&gt;&lt;font style=&quot;font-size: 19px;&quot;&gt;analyzed data&lt;/font&gt;&lt;/b&gt;" style="text;html=1;align=center;verticalAlign=middle;resizable=0;points=[];autosize=1;strokeColor=none;fillColor=none;" vertex="1" parent="SpGyAxDBSFVW8lquO75B-240">
          <mxGeometry x="77.00448430493273" width="143" height="35" as="geometry" />
        </mxCell>
        <mxCell id="SpGyAxDBSFVW8lquO75B-243" value="visualizeSummary()" style="html=1;verticalAlign=bottom;endArrow=open;dashed=1;endSize=8;labelBackgroundColor=none;fontFamily=Verdana;fontSize=20;edgeStyle=elbowEdgeStyle;elbow=vertical;strokeWidth=2;fontStyle=1;exitX=0.01;exitY=0.129;exitDx=0;exitDy=0;exitPerimeter=0;" edge="1" parent="1">
          <mxGeometry relative="1" as="geometry">
            <mxPoint x="140" y="6277" as="targetPoint" />
            <Array as="points">
              <mxPoint x="289.9000000000001" y="6276.264999999999" />
            </Array>
            <mxPoint x="453" y="6276" as="sourcePoint" />
          </mxGeometry>
        </mxCell>
        <mxCell id="SpGyAxDBSFVW8lquO75B-245" value="Display success message" style="html=1;verticalAlign=bottom;endArrow=open;dashed=1;endSize=8;labelBackgroundColor=none;fontFamily=Verdana;fontSize=20;edgeStyle=elbowEdgeStyle;elbow=vertical;strokeWidth=2;fontStyle=1;" edge="1" parent="1">
          <mxGeometry x="0.0013" relative="1" as="geometry">
            <mxPoint x="96" y="2801" as="targetPoint" />
            <Array as="points">
              <mxPoint x="378" y="2801" />
            </Array>
            <mxPoint x="409" y="2801" as="sourcePoint" />
            <mxPoint as="offset" />
          </mxGeometry>
        </mxCell>
      </root>
    </mxGraphModel>
  </diagram>
</mxfile>
